<svg width="30" height="30" viewBox="0 0 30 30" fill="none" xmlns="http://www.w3.org/2000/svg">
<g clip-path="url(#clip0_281_343)">
<path d="M15.407 5.09642L21.6571 11.3484L22.2329 10.7731L15.0002 3.54102L7.76791 10.7731L8.34267 11.3484L14.5944 5.09642L14.5944 25.6597L15.407 25.6597L15.407 5.09642Z" fill="#28220B"/>
<path d="M30 14.9995C30 6.72856 23.271 -2.94135e-07 14.9995 -6.55694e-07C6.72964 -1.01718e-06 1.61323e-06 6.72856 1.2517e-06 14.9995C8.90169e-07 23.2704 6.72964 29.9983 14.9995 29.9983C23.271 29.9983 30 23.2704 30 14.9995ZM0.709647 14.9995C0.709648 7.11999 7.11999 0.70903 14.9996 0.70903C22.8808 0.709031 29.2917 7.11999 29.2917 14.9995C29.2917 22.8785 22.8808 29.2899 15.0002 29.2899C7.12045 29.2899 0.709647 22.8785 0.709647 14.9995Z" fill="#28220B"/>
</g>
<defs>
<clipPath id="clip0_281_343">
<rect width="30" height="30" fill="white" transform="translate(30) rotate(90)"/>
</clipPath>
</defs>
</svg>
