<svg width="23" height="23" viewBox="0 0 23 23" fill="none" xmlns="http://www.w3.org/2000/svg">
<g clip-path="url(#clip0_281_334)">
<path d="M18.5239 3.72266H5.17919C2.72674 3.72266 0.730957 5.7184 0.730957 8.17089V15.5846C0.730957 18.037 2.72674 20.0328 5.17919 20.0328H18.5239C20.9763 20.0328 22.9721 18.037 22.9721 15.5846V8.17089C22.9721 5.7184 20.9763 3.72266 18.5239 3.72266ZM21.9836 15.5846C21.9836 17.4924 20.4317 19.0443 18.5239 19.0443H5.17919C3.27139 19.0443 1.71945 17.4924 1.71945 15.5846V8.17089C1.71945 6.26309 3.27139 4.71115 5.17919 4.71115H18.5239C20.4317 4.71115 21.9836 6.26309 21.9836 8.17089V15.5846ZM8.63893 16.0595L15.8821 11.8782L8.63893 7.6959V16.0595ZM9.62742 9.408L13.9051 11.8783L9.62742 14.3475V9.408Z" fill="#28220B"/>
</g>
<defs>
<clipPath id="clip0_281_334">
<rect width="22.2412" height="22.2412" fill="white" transform="translate(0.730957 0.757812)"/>
</clipPath>
</defs>
</svg>
