<svg width="21" height="20" viewBox="0 0 21 20" fill="none" xmlns="http://www.w3.org/2000/svg">
<path d="M4.47454 1.82227C3.41102 1.82227 2.54053 2.69276 2.54053 3.75628V16.134C2.54053 17.1975 3.41102 18.068 4.47454 18.068H16.8522C17.9158 18.068 18.7862 17.1975 18.7862 16.134V3.75628C18.7862 2.69276 17.9158 1.82227 16.8522 1.82227H4.47454ZM4.47454 2.59587H16.8522C17.4976 2.59587 18.0126 3.11091 18.0126 3.75628V16.134C18.0126 16.7793 17.4976 17.2944 16.8522 17.2944H4.47454C3.82917 17.2944 3.31413 16.7793 3.31413 16.134V3.75628C3.31413 3.11091 3.82917 2.59587 4.47454 2.59587ZM10.0431 6.46088C9.6341 6.45994 9.26937 6.4828 8.94317 6.64295C8.94292 6.6432 8.94267 6.64345 8.94242 6.6437C8.78339 6.72205 8.6713 6.82157 8.58206 6.93985C8.53743 6.99899 8.49171 7.05207 8.46722 7.18689C8.45498 7.2543 8.4481 7.36353 8.5186 7.48152C8.58909 7.59952 8.73085 7.66661 8.82154 7.6787C8.88455 7.68709 9.02676 7.74762 9.03987 7.76558C9.04012 7.76609 9.04038 7.76659 9.04063 7.76709C9.04072 7.76722 9.09578 7.91098 9.11164 8.03906C9.12751 8.16714 9.12675 8.27099 9.12675 8.27099C9.12659 8.28133 9.12684 8.29166 9.12751 8.30197C9.12751 8.30197 9.14992 8.63754 9.13506 8.98416C9.12914 9.12231 9.11128 9.24521 9.09276 9.3551C8.95501 9.20302 8.75204 8.92763 8.45891 8.41982C8.13373 7.85618 7.87493 7.35083 7.87493 7.35083C7.86134 7.3068 7.81327 7.16982 7.62563 7.03202C7.42049 6.88083 7.2222 6.85826 7.2222 6.85826C7.19733 6.85327 7.17202 6.85074 7.14665 6.8507L5.62211 6.85146C5.62211 6.85146 5.5307 6.84617 5.42115 6.86128C5.3116 6.87639 5.14665 6.88868 4.98751 7.07734C4.98726 7.0776 4.987 7.07785 4.98675 7.0781C4.84453 7.24804 4.85313 7.43586 4.87041 7.54196C4.88769 7.64806 4.92632 7.72856 4.92632 7.72856C4.92706 7.73008 4.92782 7.73159 4.92858 7.7331C4.92858 7.7331 6.17559 10.3549 7.58483 11.8988C8.60819 13.0197 9.65857 13.0388 10.5251 13.0388H11.1718C11.3369 13.0388 11.4863 13.0323 11.6515 12.936C11.8168 12.8398 11.9281 12.6053 11.9281 12.4427C11.9281 12.2723 11.9535 12.1384 11.9847 12.0695C12.0067 12.0211 12.024 12.0037 12.0512 11.9894C12.0569 11.9931 12.0532 11.991 12.0693 12.0023C12.1337 12.0476 12.24 12.1508 12.3556 12.2795C12.5869 12.537 12.8493 12.8903 13.2018 13.1325C13.4543 13.3061 13.6928 13.3833 13.8742 13.4112C13.9878 13.4288 14.076 13.4254 14.1386 13.4203L15.583 13.4264C15.5916 13.4264 15.6002 13.4261 15.6087 13.4256C15.6087 13.4256 15.8576 13.4285 16.1164 13.2737C16.2458 13.1964 16.3984 13.0496 16.4481 12.8356C16.4977 12.6215 16.4353 12.3997 16.3136 12.1972C16.3136 12.1969 16.3136 12.1967 16.3136 12.1964C16.3347 12.2315 16.2944 12.1595 16.2531 12.0922C16.2118 12.0249 16.1519 11.9342 16.0658 11.8217C15.8936 11.5967 15.6178 11.2819 15.1721 10.8668C15.1718 10.8668 15.1716 10.8668 15.1713 10.8668C14.9449 10.6562 14.792 10.507 14.7294 10.4241C14.6667 10.3412 14.6872 10.3847 14.6916 10.3637C14.7003 10.3215 14.972 9.92952 15.5249 9.19116C15.861 8.74174 16.0968 8.40432 16.2524 8.12368C16.4079 7.84303 16.5201 7.59998 16.442 7.30248C16.4418 7.30197 16.4415 7.30147 16.4413 7.30097C16.4066 7.17037 16.3119 7.05 16.2146 6.98442C16.1174 6.91884 16.0251 6.89319 15.9426 6.87714C15.7776 6.84504 15.6336 6.8507 15.4999 6.8507C15.2196 6.8507 13.9758 6.86052 13.8734 6.86052C13.7524 6.86052 13.5524 6.91554 13.4639 6.96856C13.2415 7.10242 13.1776 7.2783 13.1776 7.2783C13.1736 7.28573 13.1698 7.29329 13.1663 7.30097C13.1663 7.30097 12.9097 7.86992 12.5793 8.43191C12.2445 9.00195 11.9973 9.27383 11.848 9.39967C11.8439 9.37729 11.8446 9.39547 11.8419 9.36417C11.8285 9.20498 11.8434 8.98501 11.8434 8.77036C11.8434 8.19228 11.8924 7.78769 11.8661 7.43015C11.8529 7.25138 11.8198 7.06703 11.7022 6.89754C11.5845 6.72805 11.3887 6.61794 11.1952 6.57118C11.0791 6.54317 10.9468 6.47033 10.4677 6.46541C10.4675 6.46541 10.4672 6.46541 10.467 6.46541C10.3205 6.46395 10.1795 6.46119 10.0431 6.46088ZM10.4594 7.23902C10.8833 7.24337 10.7777 7.26671 11.0132 7.32363C11.0862 7.34127 11.0685 7.34117 11.0668 7.33874C11.0651 7.3363 11.0866 7.37619 11.0948 7.48757C11.1112 7.71033 11.0698 8.15322 11.0698 8.77036C11.0698 8.93865 11.0495 9.1788 11.0706 9.42914C11.0916 9.67948 11.1537 10.0007 11.4529 10.1944C11.5947 10.2863 11.7593 10.2921 11.9001 10.2571C12.0409 10.2221 12.1686 10.1492 12.3028 10.0418C12.571 9.82703 12.8702 9.46451 13.2464 8.824C13.5979 8.22612 13.8536 7.65679 13.8621 7.63791C13.8637 7.63658 13.8654 7.63566 13.8674 7.63413C13.8722 7.63418 13.8672 7.63413 13.8734 7.63413C14.0178 7.63413 15.2387 7.62431 15.4999 7.62431C15.5609 7.62431 15.5831 7.62798 15.6314 7.6296C15.6183 7.67341 15.6329 7.64546 15.5755 7.74896C15.4552 7.96603 15.2334 8.28863 14.9054 8.7273C14.3663 9.44719 14.0322 9.72928 13.9338 10.2073C13.8846 10.4463 13.9768 10.7112 14.1121 10.8902C14.2474 11.0693 14.4182 11.2226 14.6447 11.4334C15.0643 11.824 15.3104 12.1078 15.4516 12.2924C15.5222 12.3847 15.5667 12.4513 15.5944 12.4964C15.622 12.5414 15.6152 12.5367 15.651 12.5961C15.6746 12.6356 15.6659 12.6115 15.6699 12.6233C15.6235 12.6364 15.5674 12.6521 15.5641 12.6527L14.1416 12.6467C14.116 12.6467 14.0904 12.6492 14.0653 12.6543C14.0653 12.6543 14.0688 12.6584 13.9928 12.6467C13.9167 12.635 13.7956 12.602 13.64 12.4949C13.4521 12.3657 13.189 12.0498 12.9313 11.7628C12.8025 11.6193 12.674 11.4815 12.5143 11.3692C12.3546 11.2569 12.1157 11.1513 11.8578 11.2325C11.59 11.3165 11.3816 11.5255 11.2799 11.75C11.2041 11.917 11.198 12.0916 11.1862 12.2652C11.1733 12.2662 11.1881 12.2652 11.1718 12.2652H10.5251C9.64645 12.2652 9.02253 12.326 8.15597 11.3767C6.99034 10.0998 5.92239 7.97514 5.74827 7.62506L7.08999 7.62431C7.11358 7.63336 7.16405 7.65231 7.16705 7.65453C7.16755 7.65503 7.16806 7.65554 7.16856 7.65604C7.11952 7.62019 7.17083 7.67039 7.17083 7.67039C7.17556 7.68197 7.18086 7.69332 7.18669 7.70439C7.18669 7.70439 7.45256 8.22379 7.78881 8.80663C8.11864 9.37801 8.35899 9.73494 8.59112 9.97081C8.70719 10.0887 8.82435 10.1833 8.98095 10.2367C9.13754 10.2901 9.33975 10.2706 9.47578 10.1959C9.75367 10.0438 9.79101 9.81945 9.83614 9.62329C9.88134 9.42686 9.89933 9.2176 9.90791 9.0174C9.92456 8.62882 9.90101 8.29252 9.8996 8.27175C9.89969 8.26447 9.90146 8.12423 9.8792 7.94463C9.85642 7.76072 9.83101 7.53587 9.66465 7.30928L9.66389 7.30852C9.66273 7.30693 9.66128 7.30705 9.66012 7.3055C9.88011 7.27395 10.0684 7.23511 10.4594 7.23902ZM13.8719 7.61826L13.8666 7.63035C13.8658 7.63082 13.866 7.62979 13.8651 7.63035C13.8667 7.62723 13.8719 7.61826 13.8719 7.61826Z" fill="#28220B"/>
</svg>
