<svg width="23" height="22" viewBox="0 0 23 22" fill="none" xmlns="http://www.w3.org/2000/svg">
<path d="M19.9874 2.88844C19.8501 2.76975 19.6828 2.69092 19.5038 2.66052C19.3249 2.63012 19.141 2.64931 18.9721 2.71599L3.635 8.7413C3.43451 8.82006 3.26491 8.96163 3.15159 9.14482C3.03827 9.32801 2.98731 9.54297 3.00634 9.75753C3.02538 9.9721 3.11338 10.1747 3.25719 10.3351C3.40099 10.4955 3.59286 10.605 3.80409 10.6472L7.96703 11.4799V16.6183C7.96495 16.816 8.0226 17.0097 8.13244 17.1741C8.24228 17.3385 8.39919 17.4659 8.58263 17.5396C8.70552 17.591 8.83736 17.6177 8.97059 17.6181C9.10078 17.6177 9.22959 17.5914 9.34955 17.5408C9.46951 17.4902 9.57823 17.4163 9.66941 17.3234L12.0458 14.947L15.5522 18.0326C15.7329 18.1931 15.966 18.2818 16.2077 18.2821C16.3128 18.2819 16.4171 18.2654 16.5171 18.233C16.6819 18.1807 16.8301 18.0861 16.9469 17.9587C17.0638 17.8313 17.1452 17.6754 17.183 17.5067L20.3088 3.86692C20.3496 3.69003 20.3412 3.50534 20.2846 3.33287C20.2279 3.16039 20.1252 3.0067 19.9874 2.88844ZM3.66856 9.69876C3.66029 9.62696 3.67648 9.55446 3.71452 9.49299C3.75255 9.43152 3.8102 9.38468 3.87815 9.36003L17.937 3.83687L8.22234 10.853L3.93446 9.99538C3.86324 9.98306 3.79825 9.94708 3.74999 9.89326C3.70174 9.83943 3.67305 9.77091 3.66856 9.69876ZM9.19928 16.8533C9.1528 16.8998 9.09357 16.9315 9.02909 16.9443C8.96461 16.9571 8.89778 16.9506 8.83704 16.9254C8.77631 16.9003 8.72439 16.8576 8.68787 16.803C8.65134 16.7483 8.63185 16.6841 8.63185 16.6183V11.9427L11.5457 14.5069L9.19928 16.8533ZM19.6607 3.71841L16.535 17.3582C16.5221 17.4143 16.4949 17.4661 16.4559 17.5086C16.417 17.551 16.3678 17.5826 16.313 17.6003C16.2582 17.618 16.1997 17.6211 16.1433 17.6094C16.0869 17.5977 16.0346 17.5715 15.9913 17.5335L8.83173 11.233L14.2194 7.34194L19.607 3.45089C19.6354 3.48864 19.6549 3.53227 19.6642 3.57856C19.6735 3.62485 19.6723 3.67263 19.6607 3.71841Z" fill="#28220B"/>
</svg>
