<svg width="169" height="59" viewBox="0 0 169 59" fill="none" xmlns="http://www.w3.org/2000/svg">
<path d="M90.6309 32.5684V32.6152C90.6465 32.6777 90.6699 32.7715 90.7012 32.8965C90.7324 33.0215 90.748 33.0996 90.748 33.1309C90.8574 33.334 90.9746 33.5371 91.0996 33.7402C91.2402 33.9277 91.3809 34.0996 91.5215 34.2559C91.6777 34.3965 91.8496 34.5137 92.0371 34.6074C92.2402 34.7012 92.4668 34.748 92.7168 34.748C93.0137 34.748 93.2871 34.6934 93.5371 34.584C93.7871 34.459 94.0605 34.3965 94.3574 34.3965C94.6387 34.3965 94.9043 34.4277 95.1543 34.4902C95.4199 34.5527 95.6934 34.584 95.9746 34.584H96.1387C96.2012 34.5684 96.2793 34.5371 96.373 34.4902C96.4824 34.4434 96.584 34.3965 96.6777 34.3496C96.7871 34.2871 96.8809 34.2324 96.959 34.1855C97.0527 34.1387 97.1152 34.1152 97.1465 34.1152C97.2246 34.0371 97.2715 33.8887 97.2871 33.6699C97.3027 33.4512 97.3105 33.2871 97.3105 33.1777C97.3105 32.7871 97.2168 32.3965 97.0293 32.0059C96.8574 31.5996 96.7246 31.2168 96.6309 30.8574C96.4121 30.1543 96.1934 29.4512 95.9746 28.748C95.7559 28.0293 95.5371 27.3184 95.3184 26.6152C95.3027 26.5684 95.2637 26.4668 95.2012 26.3105C95.1543 26.1387 95.0918 25.9512 95.0137 25.748C94.9512 25.5293 94.8887 25.3184 94.8262 25.1152C94.7637 24.9121 94.7168 24.7637 94.6855 24.6699C94.6543 24.623 94.6152 24.5371 94.5684 24.4121C94.5215 24.2871 94.4746 24.1543 94.4277 24.0137C94.3809 23.873 94.334 23.7402 94.2871 23.6152C94.2402 23.4902 94.209 23.4043 94.1934 23.3574C94.1309 23.1855 94.0918 23.084 94.0762 23.0527C94.0605 23.0215 93.9902 23.0059 93.8652 23.0059C93.7246 23.0059 93.5996 23.0684 93.4902 23.1934C93.3809 23.3027 93.2793 23.4355 93.1855 23.5918C93.1074 23.748 93.0371 23.9121 92.9746 24.084C92.9277 24.2559 92.8965 24.3965 92.8809 24.5059V24.9746C92.8809 25.0059 92.8496 25.0684 92.7871 25.1621C92.7402 25.2559 92.6855 25.3574 92.623 25.4668C92.5762 25.5605 92.5215 25.6543 92.459 25.748C92.4121 25.8418 92.3809 25.8965 92.3652 25.9121C92.3652 25.959 92.3574 26.0605 92.3418 26.2168C92.3418 26.3574 92.334 26.5137 92.3184 26.6855C92.3027 26.8574 92.2871 27.0137 92.2715 27.1543C92.2559 27.2949 92.248 27.3809 92.248 27.4121C92.1699 27.7402 92.0293 28.0684 91.8262 28.3965C91.623 28.7246 91.4902 29.0449 91.4277 29.3574C91.4277 29.3887 91.4199 29.459 91.4043 29.5684C91.3887 29.6777 91.373 29.8027 91.3574 29.9434C91.3418 30.0684 91.3262 30.1855 91.3105 30.2949C91.2949 30.4043 91.2793 30.4746 91.2637 30.5059C91.248 30.5215 91.2168 30.5762 91.1699 30.6699C91.123 30.7637 91.0684 30.873 91.0059 30.998C90.959 31.1074 90.9043 31.2168 90.8418 31.3262C90.7949 31.4199 90.7637 31.4824 90.748 31.5137C90.7324 31.6387 90.7168 31.7637 90.7012 31.8887C90.6855 31.998 90.6699 32.1074 90.6543 32.2168C90.6387 32.3262 90.6309 32.4199 90.6309 32.498V32.5684ZM108.186 49.3965H105.537C105.506 49.3965 105.404 49.3887 105.232 49.373C105.076 49.3574 104.896 49.334 104.693 49.3027C104.49 49.2871 104.303 49.2715 104.131 49.2559C103.959 49.2402 103.85 49.2324 103.803 49.2324C103.553 49.2324 103.131 49.2246 102.537 49.209C101.959 49.1934 101.342 49.1855 100.686 49.1855C99.998 49.1855 99.3652 49.1934 98.7871 49.209C98.209 49.2246 97.8105 49.2324 97.5918 49.2324C97.4668 49.123 97.3496 49.0059 97.2402 48.8809C97.1465 48.7402 97.0996 48.584 97.0996 48.4121C97.0996 48.2715 97.1152 48.1777 97.1465 48.1309C97.1777 48.0684 97.2324 47.9512 97.3105 47.7793C97.3105 47.7324 97.334 47.6465 97.3809 47.5215C97.4434 47.3965 97.5137 47.3184 97.5918 47.2871C97.623 47.2871 97.6855 47.2793 97.7793 47.2637C97.8887 47.248 97.998 47.2324 98.1074 47.2168C98.2168 47.2012 98.3184 47.1855 98.4121 47.1699C98.5059 47.1543 98.5605 47.1387 98.5762 47.123C98.623 47.1074 98.6934 47.0684 98.7871 47.0059C98.8809 46.9434 98.9824 46.873 99.0918 46.7949C99.2012 46.7168 99.3027 46.6465 99.3965 46.584C99.4902 46.5215 99.5527 46.4824 99.584 46.4668C99.5996 46.4512 99.6465 46.4355 99.7246 46.4199C99.8184 46.3887 99.9199 46.3652 100.029 46.3496C100.139 46.334 100.24 46.3262 100.334 46.3262C100.443 46.3105 100.514 46.3027 100.545 46.3027C100.576 46.3027 100.607 46.2793 100.639 46.2324C100.654 46.2168 100.67 46.1934 100.686 46.1621V45.3418C100.686 44.9199 100.646 44.498 100.568 44.0762C100.49 43.6543 100.389 43.2402 100.264 42.834C100.154 42.4121 100.037 42.0059 99.9121 41.6152C99.7871 41.209 99.6777 40.8184 99.584 40.4434C99.5684 40.3965 99.5449 40.2949 99.5137 40.1387C99.4824 39.9824 99.4434 39.8105 99.3965 39.623C99.3496 39.4355 99.3105 39.2637 99.2793 39.1074C99.248 38.9512 99.2246 38.8496 99.209 38.8027C99.209 38.7715 99.1934 38.7168 99.1621 38.6387C99.1309 38.5605 99.0996 38.4824 99.0684 38.4043C99.0371 38.3105 99.0059 38.2246 98.9746 38.1465C98.9434 38.0684 98.9277 38.0215 98.9277 38.0059C98.8809 37.8652 98.834 37.7168 98.7871 37.5605C98.7402 37.4043 98.6777 37.2559 98.5996 37.1152C98.5371 36.9746 98.4512 36.8574 98.3418 36.7637C98.248 36.6543 98.123 36.584 97.9668 36.5527C97.9043 36.5371 97.8105 36.5215 97.6855 36.5059C97.5762 36.4746 97.459 36.4512 97.334 36.4355C97.209 36.4199 97.0918 36.4121 96.9824 36.4121C96.8887 36.3965 96.8184 36.3887 96.7715 36.3887C96.7715 36.3887 96.7246 36.4199 96.6309 36.4824C96.584 36.5137 96.5371 36.5371 96.4902 36.5527C96.4277 36.5684 96.3418 36.5918 96.2324 36.623C96.123 36.6543 96.0371 36.6699 95.9746 36.6699H94.6855C94.1074 36.6699 93.5137 36.6855 92.9043 36.7168C92.3105 36.7324 91.7637 36.7793 91.2637 36.8574C91.2324 36.8574 91.1699 36.8887 91.0762 36.9512C91.0293 36.9824 90.9824 37.0059 90.9355 37.0215C90.8574 37.0371 90.7246 37.0527 90.5371 37.0684C90.3652 37.084 90.1699 37.0996 89.9512 37.1152C89.748 37.1309 89.5527 37.1465 89.3652 37.1621C89.1777 37.1777 89.0527 37.1855 88.9902 37.1855L88.8262 37.3496L88.1934 40.9121C87.9746 41.1621 87.8184 41.4277 87.7246 41.709C87.6309 41.9746 87.5684 42.2559 87.5371 42.5527C87.5059 42.8496 87.4824 43.1465 87.4668 43.4434C87.4668 43.7402 87.4355 44.0371 87.373 44.334C87.373 44.3965 87.3184 44.5137 87.209 44.6855C87.0996 44.8574 87.0371 44.9512 87.0215 44.9668L87.209 45.3418C87.2402 45.373 87.2871 45.4512 87.3496 45.5762C87.4277 45.6855 87.4746 45.7559 87.4902 45.7871C87.5371 45.8027 87.623 45.8262 87.748 45.8574C87.8887 45.8887 88.0293 45.9277 88.1699 45.9746C88.3105 46.0059 88.4434 46.0449 88.5684 46.0918C88.6934 46.123 88.7793 46.1465 88.8262 46.1621C89.0762 46.2246 89.3809 46.2949 89.7402 46.373C90.0996 46.4512 90.4355 46.5684 90.748 46.7246C91.0762 46.8652 91.3496 47.0527 91.5684 47.2871C91.8027 47.5215 91.9199 47.8184 91.9199 48.1777V48.5762C91.9043 48.6074 91.8652 48.6621 91.8027 48.7402C91.7559 48.8027 91.6934 48.873 91.6152 48.9512C91.5527 49.0137 91.4902 49.0762 91.4277 49.1387C91.3652 49.1855 91.3105 49.2168 91.2637 49.2324C91.0762 49.2324 90.7637 49.2402 90.3262 49.2559C89.9043 49.2715 89.4512 49.2871 88.9668 49.3027C88.498 49.334 88.0449 49.3574 87.6074 49.373C87.1855 49.3887 86.8809 49.3965 86.6934 49.3965H83.4355H80.2012C80.1699 49.3652 80.1387 49.3105 80.1074 49.2324C80.0762 49.1387 80.0371 49.0684 79.9902 49.0215C79.959 48.8027 79.9043 48.5371 79.8262 48.2246C79.748 47.9121 79.709 47.6152 79.709 47.334C79.709 47.1152 79.8262 46.959 80.0605 46.8652C80.2949 46.7559 80.5059 46.6699 80.6934 46.6074C80.709 46.6074 80.7637 46.6074 80.8574 46.6074C80.9512 46.5918 81.0527 46.5762 81.1621 46.5605C81.2871 46.5449 81.3965 46.5293 81.4902 46.5137C81.5996 46.498 81.6699 46.4824 81.7012 46.4668C81.8574 46.4043 82.0527 46.3105 82.2871 46.1855C82.5371 46.0605 82.7793 45.9434 83.0137 45.834C83.248 45.709 83.4512 45.5996 83.623 45.5059C83.8105 45.4121 83.9121 45.3574 83.9277 45.3418L84.1621 44.9668V42.6934C84.3184 42.6777 84.4512 42.5605 84.5605 42.3418C84.6855 42.1074 84.7949 41.8496 84.8887 41.5684C84.9824 41.2871 85.0684 41.0059 85.1465 40.7246C85.2246 40.4434 85.3027 40.2402 85.3809 40.1152C85.3965 40.0996 85.4355 40.0605 85.498 39.998C85.5762 39.9355 85.6543 39.873 85.7324 39.8105C85.8105 39.7324 85.8809 39.6621 85.9434 39.5996C86.0059 39.5371 86.0371 39.4902 86.0371 39.459C86.0527 39.4434 86.0684 39.373 86.084 39.248C86.0996 39.123 86.1152 38.9902 86.1309 38.8496C86.1465 38.6934 86.1621 38.5527 86.1777 38.4277C86.1934 38.2871 86.2012 38.2012 86.2012 38.1699C86.2324 38.1074 86.2793 37.9902 86.3418 37.8184C86.4199 37.6465 86.498 37.5293 86.5762 37.4668L86.8574 34.748C87.0762 34.4355 87.2168 34.0918 87.2793 33.7168C87.3574 33.3418 87.4277 32.9746 87.4902 32.6152C87.5371 32.5684 87.5762 32.4824 87.6074 32.3574C87.6387 32.2324 87.6543 32.1543 87.6543 32.123C87.6855 32.0918 87.748 32.0215 87.8418 31.9121C87.9355 31.7871 87.998 31.709 88.0293 31.6777C88.0449 31.6309 88.0605 31.5449 88.0762 31.4199C88.1074 31.2793 88.1387 31.1309 88.1699 30.9746C88.2012 30.8184 88.2246 30.6699 88.2402 30.5293C88.2715 30.373 88.2949 30.2559 88.3105 30.1777V29.5215C88.3262 29.4746 88.3652 29.3887 88.4277 29.2637C88.5059 29.1387 88.5762 29.0059 88.6387 28.8652C88.7168 28.7246 88.7871 28.5918 88.8496 28.4668C88.9277 28.3418 88.9746 28.2637 88.9902 28.2324C89.0059 28.2168 89.0293 28.1621 89.0605 28.0684C89.0918 27.959 89.123 27.8496 89.1543 27.7402C89.1855 27.6309 89.209 27.5293 89.2246 27.4355C89.2559 27.3418 89.2715 27.2793 89.2715 27.248C89.3027 27.2012 89.3418 27.1152 89.3887 26.9902C89.4512 26.8652 89.5059 26.7324 89.5527 26.5918C89.6152 26.4512 89.6621 26.3184 89.6934 26.1934C89.7402 26.0527 89.7793 25.959 89.8105 25.9121C89.9824 25.459 90.1152 24.959 90.209 24.4121C90.3184 23.8652 90.459 23.3418 90.6309 22.8418C90.7715 22.4355 90.9512 22.0449 91.1699 21.6699C91.4043 21.2949 91.5293 20.873 91.5449 20.4043C91.5762 20.373 91.5918 20.2949 91.5918 20.1699C91.5918 20.0449 91.584 19.9043 91.5684 19.748C91.5527 19.5762 91.5449 19.4668 91.5449 19.4199C91.5605 19.3887 91.6074 19.3105 91.6855 19.1855C91.7637 19.0605 91.8418 18.9277 91.9199 18.7871C92.0137 18.6465 92.0918 18.5137 92.1543 18.3887C92.2168 18.2637 92.248 18.1777 92.248 18.1309V17.7793V16.8652C92.2637 16.8027 92.3105 16.6934 92.3887 16.5371C92.4668 16.3652 92.5293 16.248 92.5762 16.1855C92.6387 16.1543 92.7012 16.1152 92.7637 16.0684C92.8105 16.0371 92.8574 16.0059 92.9043 15.9746C92.9668 15.9277 93.0137 15.8887 93.0449 15.8574C93.2949 15.7012 93.5137 15.5527 93.7012 15.4121C93.9043 15.2715 94.0996 15.1465 94.2871 15.0371C94.4902 14.9277 94.7012 14.8418 94.9199 14.7793C95.1543 14.7168 95.4277 14.6855 95.7402 14.6855C95.8184 14.6855 95.9668 14.6934 96.1855 14.709C96.4043 14.7246 96.5527 14.7324 96.6309 14.7324C96.7715 14.8574 96.9277 14.998 97.0996 15.1543C97.2871 15.3105 97.3965 15.4902 97.4277 15.6934C97.6152 16.334 97.7324 16.9668 97.7793 17.5918C97.8418 18.2168 97.959 18.8262 98.1309 19.4199C98.1309 19.4668 98.1465 19.5371 98.1777 19.6309C98.1934 19.6777 98.2168 19.7168 98.248 19.748C98.2793 19.8262 98.3105 19.9199 98.3418 20.0293C98.3887 20.1387 98.4121 20.209 98.4121 20.2402V21.0605C98.4902 21.4043 98.5996 21.7402 98.7402 22.0684C98.8809 22.3965 98.9824 22.7168 99.0449 23.0293C99.0605 23.0762 99.084 23.1934 99.1152 23.3809C99.1621 23.5684 99.2012 23.7715 99.2324 23.9902C99.2793 24.209 99.3105 24.4199 99.3262 24.623C99.3574 24.8105 99.373 24.9277 99.373 24.9746C99.3887 25.0059 99.4121 25.0684 99.4434 25.1621C99.4746 25.2559 99.5059 25.3574 99.5371 25.4668C99.584 25.5762 99.623 25.6777 99.6543 25.7715C99.6855 25.8652 99.7168 25.9121 99.748 25.9121C99.7793 26.0684 99.834 26.3262 99.9121 26.6855C100.006 27.0449 100.1 27.4277 100.193 27.834C100.303 28.2246 100.404 28.5996 100.498 28.959C100.592 29.3027 100.654 29.5449 100.686 29.6855C101.217 30.5762 101.6 31.5059 101.834 32.4746C102.068 33.4277 102.279 34.4043 102.467 35.4043C102.482 35.4355 102.514 35.5137 102.561 35.6387C102.607 35.748 102.639 35.8184 102.654 35.8496C102.92 36.5215 103.162 37.1855 103.381 37.8418C103.615 38.4824 103.865 39.1309 104.131 39.7871C104.115 39.834 104.1 39.9121 104.084 40.0215C104.068 40.1309 104.053 40.248 104.037 40.373C104.021 40.4824 103.998 40.5918 103.967 40.7012C103.951 40.7949 103.936 40.8652 103.92 40.9121V41.123V41.2402C103.936 41.2715 103.975 41.334 104.037 41.4277C104.115 41.5215 104.186 41.623 104.248 41.7324C104.326 41.8418 104.396 41.9512 104.459 42.0605C104.537 42.1543 104.584 42.2168 104.6 42.248C104.803 42.5918 104.951 42.9355 105.045 43.2793C105.139 43.6074 105.24 43.9277 105.35 44.2402C105.459 44.5527 105.592 44.8574 105.748 45.1543C105.92 45.4355 106.186 45.7012 106.545 45.9512C106.545 45.9824 106.568 46.0215 106.615 46.0684C106.678 46.0996 106.709 46.1309 106.709 46.1621C106.787 46.1777 106.904 46.2324 107.061 46.3262C107.232 46.4199 107.334 46.4668 107.365 46.4668C107.412 46.4824 107.537 46.5059 107.74 46.5371C107.959 46.5684 108.186 46.5996 108.42 46.6309C108.67 46.6621 108.896 46.6934 109.1 46.7246C109.318 46.7402 109.459 46.748 109.521 46.748C109.584 46.7793 109.67 46.8262 109.779 46.8887C109.889 46.9512 109.998 47.0215 110.107 47.0996C110.217 47.1621 110.303 47.2324 110.365 47.3105C110.443 47.3887 110.482 47.4746 110.482 47.5684C110.482 47.6152 110.451 47.748 110.389 47.9668C110.342 48.1699 110.271 48.3887 110.178 48.623C110.1 48.8574 110.014 49.0684 109.92 49.2559C109.826 49.4434 109.748 49.5449 109.686 49.5605H109.146H108.865C108.74 49.5605 108.623 49.5527 108.514 49.5371C108.42 49.5215 108.311 49.4746 108.186 49.3965ZM118.287 38.6152V38.6387C118.303 38.6855 118.334 38.7559 118.381 38.8496C118.443 38.9434 118.498 39.0449 118.545 39.1543C118.592 39.2637 118.639 39.3652 118.686 39.459C118.732 39.5527 118.764 39.623 118.779 39.6699H119.342H119.928C120.021 39.6543 120.193 39.623 120.443 39.5762C120.693 39.5293 120.959 39.4824 121.24 39.4355C121.521 39.373 121.787 39.3184 122.037 39.2715C122.287 39.209 122.459 39.1621 122.553 39.1309C122.756 38.9746 122.943 38.7793 123.115 38.5449C123.303 38.2949 123.459 38.0293 123.584 37.748C123.709 37.4668 123.811 37.1777 123.889 36.8809C123.967 36.584 124.006 36.3105 124.006 36.0605C124.006 36.0293 124.006 35.998 124.006 35.9668C124.006 35.9199 123.998 35.8965 123.982 35.8965C123.982 35.8652 123.951 35.7559 123.889 35.5684C123.842 35.3809 123.818 35.2715 123.818 35.2402C123.818 35.1934 123.811 35.0996 123.795 34.959C123.795 34.8184 123.787 34.6699 123.771 34.5137C123.756 34.3574 123.732 34.209 123.701 34.0684C123.686 33.9277 123.67 33.834 123.654 33.7871C123.654 33.7559 123.639 33.7012 123.607 33.623C123.576 33.5449 123.553 33.4902 123.537 33.459C123.459 33.3809 123.334 33.2637 123.162 33.1074C123.006 32.9355 122.842 32.7637 122.67 32.5918C122.498 32.4199 122.334 32.2637 122.178 32.123C122.037 31.9824 121.943 31.8887 121.896 31.8418C121.865 31.8105 121.764 31.7559 121.592 31.6777C121.42 31.5996 121.295 31.5449 121.217 31.5137C121.186 31.498 121.131 31.4746 121.053 31.4434C120.975 31.3965 120.889 31.3574 120.795 31.3262C120.701 31.2949 120.615 31.2637 120.537 31.2324C120.459 31.2012 120.412 31.1855 120.396 31.1855H120.279H120.115C120.068 31.2012 119.99 31.2402 119.881 31.3027C119.787 31.3496 119.678 31.4121 119.553 31.4902C119.428 31.5527 119.303 31.623 119.178 31.7012C119.068 31.7637 118.99 31.8105 118.943 31.8418C118.725 32.0137 118.584 32.2168 118.521 32.4512C118.459 32.6699 118.428 32.9121 118.428 33.1777C118.428 33.3184 118.428 33.4668 118.428 33.623C118.443 33.7637 118.451 33.8965 118.451 34.0215V34.2793C118.451 34.3105 118.42 34.3887 118.357 34.5137C118.311 34.6387 118.287 34.7168 118.287 34.748V34.8887C118.287 35.2012 118.318 35.5059 118.381 35.8027C118.459 36.084 118.498 36.3809 118.498 36.6934C118.498 37.0059 118.459 37.3184 118.381 37.6309C118.318 37.9277 118.287 38.2559 118.287 38.6152ZM113.271 50.0527C113.131 50.0059 112.959 49.9043 112.756 49.748C112.553 49.6074 112.451 49.4746 112.451 49.3496C112.451 49.0215 112.514 48.7871 112.639 48.6465C112.779 48.4902 112.943 48.3652 113.131 48.2715C113.318 48.1621 113.514 48.0527 113.717 47.9434C113.92 47.834 114.092 47.6543 114.232 47.4043C114.248 47.3887 114.279 47.334 114.326 47.2402C114.373 47.1309 114.42 47.0137 114.467 46.8887C114.529 46.748 114.584 46.6152 114.631 46.4902C114.678 46.3496 114.709 46.2402 114.725 46.1621C114.74 46.1152 114.764 46.0371 114.795 45.9277C114.842 45.8184 114.881 45.7012 114.912 45.5762C114.943 45.4512 114.967 45.334 114.982 45.2246C115.014 45.0996 115.037 45.0137 115.053 44.9668C115.068 44.9668 115.084 44.9277 115.1 44.8496C115.115 44.7715 115.131 44.6934 115.146 44.6152C115.162 44.5215 115.178 44.4355 115.193 44.3574C115.209 44.2637 115.217 44.2012 115.217 44.1699C115.248 44.1387 115.287 44.0371 115.334 43.8652C115.396 43.6934 115.428 43.5918 115.428 43.5605C115.381 43.5137 115.311 43.4043 115.217 43.2324C115.123 43.0449 115.068 42.9355 115.053 42.9043V42.6699C115.053 42.4824 115.076 42.3027 115.123 42.1309C115.186 41.9434 115.217 41.7559 115.217 41.5684C115.217 40.9121 115.162 40.2793 115.053 39.6699C114.943 39.0449 114.889 38.3809 114.889 37.6777C114.889 37.6621 114.896 37.6074 114.912 37.5137C114.928 37.4199 114.943 37.3184 114.959 37.209C114.99 37.0996 115.014 36.998 115.029 36.9043C115.045 36.7949 115.053 36.7246 115.053 36.6934V35.0059V33.3418C115.021 33.0605 114.904 32.8184 114.701 32.6152C114.514 32.4121 114.311 32.2637 114.092 32.1699C114.014 32.123 113.881 32.0605 113.693 31.9824C113.506 31.9043 113.303 31.8262 113.084 31.748C112.881 31.6543 112.686 31.5762 112.498 31.5137C112.311 31.4355 112.178 31.3809 112.1 31.3496C112.053 31.2402 111.982 31.0762 111.889 30.8574C111.811 30.623 111.787 30.4668 111.818 30.3887C111.818 30.3574 111.857 30.3027 111.936 30.2246C112.014 30.1465 112.068 30.0762 112.1 30.0137C112.162 29.9824 112.271 29.9355 112.428 29.873C112.6 29.8105 112.717 29.7637 112.779 29.7324H113.928H115.053C115.1 29.7324 115.201 29.7402 115.357 29.7559C115.514 29.7715 115.678 29.7949 115.85 29.8262C116.037 29.8418 116.209 29.8574 116.365 29.873C116.521 29.8887 116.623 29.8965 116.67 29.8965H118.146C118.178 29.8965 118.24 29.9121 118.334 29.9434C118.428 29.9746 118.521 30.0137 118.615 30.0605C118.725 30.0918 118.826 30.123 118.92 30.1543C119.014 30.1855 119.076 30.209 119.107 30.2246H119.389C119.998 30.2246 120.592 30.1699 121.17 30.0605C121.748 29.9512 122.334 29.8965 122.928 29.8965H123.982C124.326 29.9277 124.623 30.0527 124.873 30.2715C125.139 30.4746 125.396 30.6621 125.646 30.834C126.365 31.4746 126.92 32.1465 127.311 32.8496C127.701 33.5527 127.896 34.4199 127.896 35.4512C127.896 35.9512 127.873 36.4043 127.826 36.8105C127.795 37.2012 127.662 37.6152 127.428 38.0527C127.381 38.1309 127.303 38.2402 127.193 38.3809C127.084 38.5215 126.975 38.6699 126.865 38.8262C126.771 38.9668 126.678 39.0996 126.584 39.2246C126.506 39.3496 126.459 39.4277 126.443 39.459C126.334 39.5996 126.201 39.7324 126.045 39.8574C125.904 39.9824 125.764 40.1152 125.623 40.2559C125.498 40.3809 125.389 40.5215 125.295 40.6777C125.201 40.8184 125.154 40.9824 125.154 41.1699C125.154 41.4043 125.193 41.6543 125.271 41.9199C125.365 42.1855 125.49 42.3965 125.646 42.5527C125.943 42.9121 126.295 43.2324 126.701 43.5137C127.107 43.7949 127.443 44.1309 127.709 44.5215C127.756 44.5215 127.795 44.5684 127.826 44.6621L127.873 44.8027C128.139 45.209 128.381 45.5684 128.6 45.8809C128.818 46.1777 129.131 46.4824 129.537 46.7949C129.678 46.9043 129.85 47.0137 130.053 47.123C130.256 47.2324 130.451 47.3496 130.639 47.4746C130.826 47.5996 130.982 47.7559 131.107 47.9434C131.248 48.1152 131.318 48.3262 131.318 48.5762C131.318 48.7949 131.217 49.0059 131.014 49.209C130.811 49.4121 130.568 49.584 130.287 49.7246C130.021 49.8809 129.748 49.998 129.467 50.0762C129.186 50.1699 128.967 50.2168 128.811 50.2168H128.061C128.045 50.2168 127.967 50.1855 127.826 50.123C127.686 50.0762 127.607 50.0527 127.592 50.0527H126.607C126.373 50.0371 126.154 49.8809 125.951 49.584C125.748 49.2871 125.561 48.9512 125.389 48.5762C125.217 48.1855 125.061 47.8105 124.92 47.4512C124.795 47.0762 124.693 46.7949 124.615 46.6074C124.615 46.5605 124.584 46.4824 124.521 46.373C124.475 46.248 124.412 46.123 124.334 45.998C124.271 45.8574 124.209 45.7246 124.146 45.5996C124.084 45.4746 124.029 45.3887 123.982 45.3418C123.873 45.123 123.686 44.9668 123.42 44.873C123.154 44.7637 122.92 44.6465 122.717 44.5215C122.67 44.5215 122.631 44.4902 122.6 44.4277C122.584 44.3965 122.568 44.373 122.553 44.3574C122.537 44.3418 122.506 44.3027 122.459 44.2402C122.412 44.1621 122.357 44.0918 122.295 44.0293C122.248 43.9512 122.193 43.8809 122.131 43.8184C122.084 43.7559 122.053 43.7246 122.037 43.7246C122.021 43.709 122.006 43.7012 121.99 43.7012C121.975 43.6855 121.959 43.6621 121.943 43.6309C121.928 43.6152 121.912 43.5918 121.896 43.5605C121.865 43.5449 121.795 43.5137 121.686 43.4668C121.592 43.4043 121.49 43.3496 121.381 43.3027C121.271 43.2402 121.17 43.1934 121.076 43.1621C120.998 43.1152 120.951 43.084 120.936 43.0684C120.904 43.0371 120.842 42.9746 120.748 42.8809C120.654 42.7871 120.592 42.7246 120.561 42.6934C120.342 42.5684 120.1 42.4668 119.834 42.3887C119.568 42.2949 119.311 42.248 119.061 42.248H118.943L118.85 42.2949C118.803 42.3262 118.779 42.3574 118.779 42.3887C118.764 42.4355 118.732 42.5059 118.686 42.5996C118.639 42.6777 118.592 42.7715 118.545 42.8809C118.498 42.9746 118.443 43.0684 118.381 43.1621C118.334 43.2402 118.303 43.3027 118.287 43.3496V44.4043V45.248C118.287 45.5605 118.303 45.873 118.334 46.1855C118.381 46.4824 118.49 46.7402 118.662 46.959C118.662 46.9902 118.74 47.1074 118.896 47.3105C119.068 47.5137 119.209 47.6699 119.318 47.7793C119.475 47.9512 119.654 48.0762 119.857 48.1543C120.061 48.2324 120.256 48.3184 120.443 48.4121C120.631 48.5059 120.787 48.6309 120.912 48.7871C121.037 48.9277 121.1 49.1543 121.1 49.4668C121.1 49.6543 121.021 49.7715 120.865 49.8184C120.709 49.8652 120.545 49.8887 120.373 49.8887H120.045H119.928C119.865 49.8887 119.748 49.8965 119.576 49.9121C119.404 49.9277 119.217 49.9434 119.014 49.959C118.826 49.9746 118.646 49.9902 118.475 50.0059C118.318 50.0215 118.209 50.0371 118.146 50.0527C118.115 50.0527 118.061 50.0605 117.982 50.0762C117.92 50.0918 117.842 50.1074 117.748 50.123C117.654 50.1543 117.568 50.1777 117.49 50.1934C117.412 50.209 117.357 50.2168 117.326 50.2168H117.232H117.162C117.146 50.2168 117.092 50.209 116.998 50.1934C116.904 50.1777 116.803 50.1543 116.693 50.123C116.6 50.1074 116.498 50.0918 116.389 50.0762C116.295 50.0605 116.24 50.0527 116.225 50.0527C116.1 50.0527 115.896 50.0449 115.615 50.0293C115.334 50.0137 115.037 50.0059 114.725 50.0059C114.412 50.0059 114.115 50.0137 113.834 50.0293C113.568 50.0449 113.381 50.0527 113.271 50.0527ZM149.271 49.2324H144.303C144.256 49.2168 144.186 49.1934 144.092 49.1621C144.014 49.1309 143.92 49.0996 143.811 49.0684C143.701 49.0215 143.6 48.9824 143.506 48.9512C143.428 48.9199 143.365 48.8887 143.318 48.8574H143.201H143.107C142.686 49.0137 142.271 49.1152 141.865 49.1621C141.459 49.209 141.014 49.2324 140.529 49.2324C140.248 49.2324 139.928 49.2168 139.568 49.1855C139.225 49.1387 138.889 49.0527 138.561 48.9277C138.248 48.8027 137.982 48.6309 137.764 48.4121C137.545 48.1934 137.436 47.8965 137.436 47.5215C137.436 47.2402 137.529 46.9824 137.717 46.748C137.92 46.498 138.154 46.3496 138.42 46.3027C138.498 46.3027 138.654 46.2949 138.889 46.2793C139.123 46.2637 139.365 46.248 139.615 46.2324C139.881 46.2168 140.123 46.2012 140.342 46.1855C140.576 46.1699 140.74 46.1621 140.834 46.1621C141.1 46.1152 141.326 46.0293 141.514 45.9043C141.701 45.7637 141.865 45.5996 142.006 45.4121C142.146 45.2246 142.264 45.0293 142.357 44.8262C142.467 44.6074 142.568 44.3887 142.662 44.1699C142.646 44.0449 142.631 43.8184 142.615 43.4902C142.6 43.1621 142.592 42.8184 142.592 42.459C142.592 42.0996 142.6 41.7637 142.615 41.4512C142.631 41.1387 142.646 40.9043 142.662 40.748C142.662 40.6855 142.678 40.5293 142.709 40.2793C142.74 40.0137 142.771 39.7324 142.803 39.4355C142.834 39.1387 142.865 38.8652 142.896 38.6152C142.928 38.3652 142.943 38.2012 142.943 38.123V38.0527V38.0059C142.943 37.959 142.92 37.8652 142.873 37.7246C142.826 37.584 142.803 37.498 142.803 37.4668V37.3027C142.803 37.1621 142.826 37.0293 142.873 36.9043C142.92 36.7637 142.943 36.5996 142.943 36.4121C142.943 36.209 142.92 36.0137 142.873 35.8262C142.826 35.6387 142.803 35.4434 142.803 35.2402V34.8887C142.818 34.8105 142.842 34.6074 142.873 34.2793C142.904 33.9355 142.936 33.5684 142.967 33.1777C143.014 32.7871 143.045 32.4277 143.061 32.0996C143.092 31.7559 143.107 31.5371 143.107 31.4434V30.9512V29.5215C143.139 29.1621 143.209 28.8184 143.318 28.4902C143.428 28.1621 143.482 27.8184 143.482 27.459C143.482 27.1934 143.443 26.9824 143.365 26.8262C143.303 26.6543 143.271 26.4355 143.271 26.1699C143.271 26.0449 143.279 25.9277 143.295 25.8184C143.311 25.6934 143.373 25.5762 143.482 25.4668V21.6934C143.482 21.6777 143.459 21.6152 143.412 21.5059C143.381 21.3965 143.35 21.3027 143.318 21.2246C143.24 21.0371 143.162 20.8262 143.084 20.5918C143.021 20.3574 142.881 20.1855 142.662 20.0762C142.615 20.0605 142.537 20.0293 142.428 19.9824C142.334 19.9355 142.225 19.8887 142.1 19.8418C141.975 19.7793 141.85 19.7246 141.725 19.6777C141.615 19.6309 141.537 19.5996 141.49 19.584H140.107C139.123 19.584 138.186 19.6152 137.295 19.6777C136.404 19.7246 135.482 19.748 134.529 19.748H133.545C133.154 19.9668 132.818 20.1934 132.537 20.4277C132.271 20.6465 132.014 20.9121 131.764 21.2246C131.732 21.2246 131.693 21.2637 131.646 21.3418C131.615 21.4199 131.584 21.4746 131.553 21.5059C131.49 21.6777 131.443 21.8184 131.412 21.9277C131.381 22.0371 131.342 22.1387 131.295 22.2324C131.264 22.3262 131.217 22.4199 131.154 22.5137C131.092 22.5918 131.014 22.7012 130.92 22.8418C130.748 23.0605 130.568 23.2871 130.381 23.5215C130.209 23.7402 130.021 23.9512 129.818 24.1543C129.615 24.3574 129.389 24.5215 129.139 24.6465C128.889 24.7715 128.615 24.834 128.318 24.834C128.1 24.834 127.904 24.7871 127.732 24.6934C127.576 24.5996 127.498 24.4121 127.498 24.1309V24.0137C127.498 23.9199 127.506 23.7871 127.521 23.6152C127.537 23.4277 127.553 23.2402 127.568 23.0527C127.6 22.8652 127.623 22.6934 127.639 22.5371C127.654 22.3652 127.662 22.248 127.662 22.1855C127.678 22.1074 127.686 22.0059 127.686 21.8809C127.701 21.7559 127.717 21.6387 127.732 21.5293C127.748 21.4043 127.756 21.2949 127.756 21.2012C127.771 21.1074 127.779 21.0605 127.779 21.0605C127.826 21.0293 127.92 20.9512 128.061 20.8262C128.201 20.6855 128.287 20.5996 128.318 20.5684C128.334 20.5371 128.373 20.4355 128.436 20.2637C128.514 20.0918 128.584 19.9043 128.646 19.7012C128.725 19.498 128.795 19.3105 128.857 19.1387C128.92 18.9512 128.959 18.834 128.975 18.7871V17.9668C128.99 17.7949 129.053 17.6777 129.162 17.6152C129.271 17.5371 129.381 17.4355 129.49 17.3105C129.631 17.123 129.756 16.9355 129.865 16.748C129.975 16.5449 130.1 16.3652 130.24 16.209C130.381 16.0371 130.545 15.8965 130.732 15.7871C130.92 15.6777 131.154 15.623 131.436 15.623C131.686 15.623 131.92 15.6777 132.139 15.7871C132.357 15.8809 132.568 16.0059 132.771 16.1621C132.99 16.3027 133.201 16.4512 133.404 16.6074C133.607 16.748 133.818 16.8652 134.037 16.959C134.068 16.9746 134.123 16.9902 134.201 17.0059C134.295 17.0059 134.389 17.0059 134.482 17.0059C134.576 17.0059 134.662 17.0059 134.74 17.0059C134.818 17.0059 134.865 17.0059 134.881 17.0059C135.24 17.0059 135.545 16.9746 135.795 16.9121C136.061 16.834 136.35 16.7949 136.662 16.7949C137.303 16.7949 137.928 16.8574 138.537 16.9824C139.146 17.1074 139.779 17.1699 140.436 17.1699C140.701 17.1699 140.967 17.1387 141.232 17.0762C141.514 16.998 141.787 16.959 142.053 16.959H142.146C142.412 16.9746 142.748 16.998 143.154 17.0293C143.576 17.0449 143.982 17.0684 144.373 17.0996C144.779 17.1152 145.131 17.1309 145.428 17.1465C145.725 17.1621 145.889 17.1699 145.92 17.1699C145.936 17.1699 145.99 17.1777 146.084 17.1934C146.178 17.209 146.271 17.2246 146.365 17.2402C146.475 17.2559 146.576 17.2715 146.67 17.2871C146.764 17.3027 146.826 17.3105 146.857 17.3105H146.998C147.826 17.3105 148.631 17.2871 149.412 17.2402C150.209 17.1934 151.014 17.1699 151.826 17.1699C152.139 17.1699 152.443 17.1934 152.74 17.2402C153.053 17.2871 153.373 17.3105 153.701 17.3105H154.217C154.67 17.3105 155.115 17.2949 155.553 17.2637C155.99 17.2324 156.396 17.1309 156.771 16.959C156.85 16.959 156.92 16.9434 156.982 16.9121C157.061 16.8652 157.115 16.8262 157.146 16.7949C157.178 16.7793 157.256 16.7246 157.381 16.6309C157.506 16.5371 157.639 16.4355 157.779 16.3262C157.936 16.2012 158.068 16.0918 158.178 15.998C158.303 15.9043 158.381 15.8418 158.412 15.8105C158.428 15.8105 158.475 15.8027 158.553 15.7871C158.646 15.7715 158.74 15.7637 158.834 15.7637C158.943 15.748 159.053 15.7324 159.162 15.7168C159.271 15.7012 159.357 15.6934 159.42 15.6934H159.701C159.951 15.6934 160.123 15.8027 160.217 16.0215C160.311 16.2246 160.42 16.4277 160.545 16.6309C160.576 16.6777 160.631 16.7715 160.709 16.9121C160.803 17.0527 160.873 17.1387 160.92 17.1699C160.92 17.1855 160.92 17.248 160.92 17.3574C160.936 17.4668 160.943 17.584 160.943 17.709C160.959 17.834 160.975 17.9512 160.99 18.0605C161.006 18.1699 161.021 18.2324 161.037 18.248C161.053 18.2949 161.092 18.3809 161.154 18.5059C161.217 18.6309 161.279 18.7715 161.342 18.9277C161.42 19.0684 161.49 19.2012 161.553 19.3262C161.631 19.4512 161.686 19.5371 161.717 19.584C161.717 19.6152 161.732 19.7012 161.764 19.8418C161.795 19.9668 161.826 20.0449 161.857 20.0762C161.904 20.2012 161.99 20.4121 162.115 20.709C162.24 20.9902 162.373 21.2949 162.514 21.623C162.654 21.9512 162.787 22.2637 162.912 22.5605C163.053 22.8574 163.146 23.0684 163.193 23.1934C163.193 23.2246 163.193 23.3027 163.193 23.4277C163.209 23.5371 163.225 23.6621 163.24 23.8027C163.256 23.9434 163.271 24.0762 163.287 24.2012C163.303 24.3262 163.326 24.4121 163.357 24.459V24.6699C163.357 25.0918 163.178 25.4121 162.818 25.6309C162.459 25.8496 162.092 25.959 161.717 25.959C161.654 25.959 161.561 25.9512 161.436 25.9355C161.311 25.9199 161.232 25.9121 161.201 25.9121C160.951 25.6934 160.686 25.4512 160.404 25.1855C160.139 24.9199 159.92 24.623 159.748 24.2949C159.482 23.7949 159.225 23.3027 158.975 22.8184C158.74 22.3184 158.459 21.873 158.131 21.4824C157.803 21.0918 157.412 20.7715 156.959 20.5215C156.521 20.2715 155.975 20.123 155.318 20.0762H154.498H152.436C152.373 20.0449 152.256 20.0059 152.084 19.959C151.912 19.8965 151.818 19.8652 151.803 19.8652H150.443H149.154C149.092 19.9121 148.959 19.9824 148.756 20.0762C148.553 20.1543 148.42 20.209 148.357 20.2402C148.326 20.2715 148.295 20.2949 148.264 20.3105C148.217 20.3574 148.193 20.3887 148.193 20.4043C148.178 20.4512 148.162 20.5371 148.146 20.6621C148.131 20.7871 148.115 20.9199 148.1 21.0605C148.084 21.2012 148.068 21.334 148.053 21.459C148.037 21.5684 148.029 21.6465 148.029 21.6934V21.7871V21.8574C148.029 21.9043 148.037 22.0059 148.053 22.1621C148.068 22.3184 148.084 22.4902 148.1 22.6777C148.131 22.8652 148.154 23.0371 148.17 23.1934C148.186 23.3496 148.193 23.4434 148.193 23.4746V23.8027C148.193 24.2715 148.162 24.748 148.1 25.2324C148.053 25.7168 148.029 26.2012 148.029 26.6855C148.029 27.1387 148.053 27.5996 148.1 28.0684C148.162 28.5215 148.193 28.9902 148.193 29.4746C148.193 29.6465 148.131 29.8027 148.006 29.9434C147.881 30.084 147.818 30.2324 147.818 30.3887C147.818 30.6699 147.85 30.9512 147.912 31.2324C147.99 31.498 148.029 31.7637 148.029 32.0293V32.7793C148.029 32.7793 148.021 32.8184 148.006 32.8965C147.99 32.959 147.967 33.0293 147.936 33.1074C147.92 33.1699 147.904 33.2402 147.889 33.3184C147.873 33.3809 147.865 33.4121 147.865 33.4121V33.6699V34.2324C147.85 34.2637 147.834 34.3262 147.818 34.4199C147.803 34.5137 147.787 34.6152 147.771 34.7246C147.756 34.8184 147.732 34.9121 147.701 35.0059C147.686 35.0996 147.67 35.1621 147.654 35.1934C147.529 36.5215 147.42 37.8418 147.326 39.1543C147.248 40.4512 147.209 41.7715 147.209 43.1152V43.5605C147.209 43.7324 147.217 43.8965 147.232 44.0527C147.248 44.209 147.295 44.4199 147.373 44.6855C147.42 44.8262 147.498 44.998 147.607 45.2012C147.732 45.3887 147.873 45.5762 148.029 45.7637C148.201 45.9512 148.373 46.1152 148.545 46.2559C148.732 46.3809 148.912 46.4434 149.084 46.4434C149.318 46.4434 149.545 46.4121 149.764 46.3496C149.982 46.2715 150.209 46.2324 150.443 46.2324C150.709 46.2324 151.014 46.2559 151.357 46.3027C151.701 46.3496 152.021 46.4355 152.318 46.5605C152.631 46.6855 152.889 46.8574 153.092 47.0762C153.311 47.2949 153.42 47.584 153.42 47.9434C153.42 48.0996 153.381 48.2715 153.303 48.459C153.24 48.6309 153.146 48.7949 153.021 48.9512C152.912 49.1074 152.771 49.2402 152.6 49.3496C152.443 49.4746 152.271 49.5449 152.084 49.5605C152.006 49.5605 151.865 49.5527 151.662 49.5371C151.475 49.5215 151.264 49.5059 151.029 49.4902C150.811 49.4746 150.6 49.459 150.396 49.4434C150.193 49.4277 150.053 49.4121 149.975 49.3965C149.912 49.3965 149.795 49.3652 149.623 49.3027C149.467 49.2559 149.35 49.2324 149.271 49.2324Z" fill="#28220B"/>
<path d="M125.671 55.7711C125.621 55.6313 125.52 55.4915 125.448 55.4668C125.369 55.4257 125.348 55.3599 125.376 55.253C125.491 54.8253 124.967 54.1837 124.593 54.2907C124.478 54.3236 124.421 54.2824 124.371 54.1508C124.263 53.8712 123.954 53.7149 123.717 53.8054C123.552 53.8794 123.487 53.8548 123.351 53.7067C123.178 53.5011 122.841 53.4518 122.704 53.608C122.64 53.682 122.568 53.6574 122.424 53.5258C122.194 53.3119 121.936 53.3037 121.77 53.5011C121.648 53.6327 121.634 53.6327 121.519 53.5011C121.347 53.3037 121.009 53.3119 120.851 53.5176C120.743 53.6574 120.715 53.6574 120.621 53.5587C120.47 53.386 120.118 53.4024 119.975 53.5916C119.867 53.7396 119.838 53.7396 119.709 53.6327C119.501 53.4682 119.328 53.4929 119.141 53.7067C118.998 53.863 118.955 53.8794 118.797 53.789C118.588 53.6656 118.38 53.7232 118.222 53.9452C118.143 54.0604 118.093 54.0851 118.057 54.0193C117.963 53.8548 117.532 53.9123 117.417 54.1015C117.331 54.2413 117.281 54.2578 117.166 54.1837C116.929 54.0357 116.742 54.0768 116.591 54.2989C116.505 54.4223 116.426 54.4716 116.397 54.4223C116.311 54.266 115.873 54.3318 115.758 54.521C115.672 54.6608 115.629 54.6855 115.557 54.6032C115.413 54.4387 115.09 54.4881 114.946 54.7019C114.832 54.8828 114.81 54.8828 114.652 54.7677C114.523 54.669 114.451 54.669 114.307 54.7348C114.214 54.7924 114.113 54.8828 114.092 54.9486C114.056 55.0473 114.02 55.0473 113.847 54.9322C113.654 54.8006 113.632 54.8006 113.424 54.9815C113.251 55.1296 113.172 55.146 113.064 55.0802C112.985 55.0391 112.727 55.0144 112.483 55.0391C112.145 55.072 111.987 55.0473 111.836 54.9404C111.664 54.8253 111.599 54.817 111.434 54.9075C111.276 54.9898 111.218 54.9815 111.118 54.8746C110.981 54.7348 110.608 54.7101 110.493 54.8417C110.435 54.9075 110.371 54.8828 110.263 54.7595C110.084 54.5539 109.811 54.5374 109.653 54.7184C109.552 54.8253 109.53 54.8335 109.494 54.7266C109.473 54.6608 109.358 54.5539 109.243 54.5045C109.071 54.4223 109.006 54.4223 108.862 54.5374C108.755 54.6114 108.668 54.6361 108.64 54.5868C108.575 54.4716 107.893 54.0933 107.735 54.0933C107.634 54.0933 107.598 54.0357 107.598 53.8877C107.598 53.7725 107.512 53.5833 107.411 53.46C107.261 53.2873 107.182 53.2626 106.98 53.2955C106.844 53.3202 106.736 53.3119 106.736 53.2626C106.736 53.2215 106.657 53.0899 106.557 52.9829C106.37 52.7609 106.032 52.7115 105.889 52.876C105.824 52.95 105.774 52.9172 105.659 52.7527C105.486 52.4977 105.091 52.4483 104.94 52.654C104.861 52.7609 104.833 52.7527 104.675 52.6128C104.43 52.3908 104.179 52.4072 103.971 52.6457C103.827 52.8102 103.784 52.8267 103.712 52.728C103.568 52.5306 103.224 52.5882 103.001 52.8431C102.843 53.0323 102.75 53.0734 102.577 53.0405C102.398 53.0158 102.311 53.057 102.11 53.2873C101.931 53.4929 101.837 53.5504 101.78 53.4847C101.73 53.4271 101.636 53.4271 101.478 53.5011C101.277 53.5833 101.241 53.5751 101.155 53.4353C101.047 53.2626 100.745 53.2215 100.566 53.3448C100.494 53.4024 100.422 53.3613 100.329 53.2215C100.185 53.0158 99.9553 52.9665 99.7757 53.0981C99.7039 53.1557 99.6321 53.1145 99.5387 52.9747C99.4597 52.8678 99.3447 52.7773 99.2729 52.7773C99.2083 52.7773 99.1149 52.7362 99.0646 52.6786C99 52.6046 98.9641 52.6293 98.9138 52.7856C98.8419 52.9829 98.8419 52.9829 98.8419 52.7444C98.8348 52.5799 98.806 52.5224 98.727 52.5553C98.6695 52.5882 98.6049 52.5717 98.5762 52.5224C98.5546 52.473 98.49 52.4566 98.4325 52.4812C98.375 52.5059 98.3319 52.4895 98.3319 52.4483C98.3319 52.3003 98.2098 52.3661 98.1308 52.5553L98.0446 52.7362L98.0662 52.5306C98.0733 52.3908 98.0446 52.325 97.9728 52.325C97.9153 52.325 97.8507 52.3003 97.8291 52.2756C97.8076 52.251 97.707 52.2016 97.5993 52.1769C97.4556 52.1358 97.3981 52.1523 97.3766 52.2592C97.3478 52.3743 97.3407 52.3661 97.3335 52.2263C97.3263 52.0782 97.2688 52.0371 97.0031 51.996C96.7516 51.9466 96.6367 51.9713 96.4356 52.1111C95.94 52.4648 95.43 53.2708 95.4731 53.6245C95.5018 53.8548 96.0262 54.192 96.1626 54.0686C96.2201 54.011 96.2488 54.0275 96.2488 54.1344C96.2488 54.2249 96.2847 54.2578 96.3566 54.2249C96.414 54.2002 96.4643 54.2084 96.4643 54.2495C96.4643 54.3647 96.8522 54.414 96.9528 54.3236C97.0174 54.2578 97.0318 54.266 97.0031 54.3482C96.9743 54.4387 97.0605 54.4963 97.2904 54.5703C97.4771 54.6279 97.6495 54.6526 97.6855 54.6279C97.7142 54.6032 97.7645 54.6443 97.786 54.7184C97.8076 54.7841 97.8578 54.8253 97.8938 54.8006C97.9297 54.7677 98.0446 54.7924 98.1452 54.8417C98.2817 54.9157 98.375 54.9157 98.5043 54.8499C98.7486 54.7266 98.7917 54.8253 98.5833 55.0144C98.4181 55.1625 98.3894 55.1625 98.2457 55.0473C98.0302 54.8746 97.8794 54.8828 97.7214 55.0802C97.5993 55.2365 97.5921 55.2365 97.4125 55.0802C97.2186 54.9075 97.0246 54.924 96.8163 55.1296C96.7157 55.2365 96.687 55.2283 96.608 55.1214C96.4931 54.9569 96.1842 54.9651 96.0262 55.1296C95.904 55.253 95.8897 55.253 95.7819 55.1296C95.6311 54.9569 95.3438 54.9651 95.1929 55.146C95.0708 55.2776 95.0564 55.2776 94.9343 55.146C94.7691 54.9486 94.5033 54.9569 94.3525 55.1543C94.2304 55.3105 94.2232 55.3105 94.0867 55.1543C93.9143 54.9569 93.6988 54.9569 93.5336 55.146C93.4043 55.2941 93.3971 55.2941 93.2319 55.146C93.0308 54.9569 92.9374 54.9569 92.7076 55.1625C92.5854 55.2694 92.5064 55.3023 92.4777 55.2447C92.449 55.1954 92.3412 55.1131 92.2407 55.072C92.0898 55.0062 92.018 55.0227 91.8599 55.1543C91.6876 55.3023 91.6516 55.3023 91.5798 55.2036C91.4577 55.0309 91.0267 55.0473 90.9477 55.2201C90.883 55.3516 90.8687 55.3516 90.7537 55.2201C90.6029 55.0473 90.3012 55.0391 90.136 55.2118C90.0139 55.3352 89.9995 55.3352 89.8918 55.2118C89.7481 55.0473 89.3961 55.0391 89.2812 55.2036C89.2022 55.3105 89.1735 55.3105 89.0442 55.2036C88.843 55.0391 88.5988 55.0473 88.4552 55.2118C88.3474 55.3352 88.333 55.3352 88.2109 55.2118C88.0457 55.0391 87.7871 55.0473 87.6147 55.2201C87.4926 55.3434 87.4782 55.3434 87.3561 55.2201C87.1909 55.0473 86.8892 55.0391 86.7671 55.2036C86.6881 55.3105 86.6594 55.3105 86.5301 55.2036C86.3361 55.0473 86.1206 55.0473 85.9339 55.1954C85.8118 55.2941 85.7759 55.2941 85.6537 55.1954C85.4742 55.0473 85.2658 55.0473 85.1078 55.2118C84.9929 55.3352 84.9642 55.3352 84.8133 55.2118C84.605 55.0391 84.4039 55.0473 84.2387 55.2201C84.1166 55.3434 84.1022 55.3434 83.9801 55.2201C83.8077 55.0391 83.5706 55.0391 83.4126 55.2283C83.2905 55.3599 83.2761 55.3599 83.1612 55.2283C83.0032 55.0473 82.723 55.0391 82.5722 55.2118C82.4716 55.327 82.4429 55.327 82.2992 55.2118C82.0909 55.0473 81.8898 55.0473 81.7318 55.2118C81.6168 55.3352 81.5881 55.3352 81.4373 55.2118C81.2289 55.0473 81.0278 55.0473 80.8698 55.2118C80.7477 55.3352 80.7333 55.3352 80.6256 55.2118C80.4819 55.0473 80.2377 55.0391 80.0437 55.1954C79.9216 55.2941 79.8857 55.2941 79.7636 55.1954C79.584 55.0473 79.3326 55.0473 79.1961 55.2118C79.0956 55.327 79.0668 55.327 78.9232 55.2118C78.7149 55.0391 78.5137 55.0473 78.3485 55.2201C78.2264 55.3434 78.212 55.3434 78.0899 55.2201C77.9247 55.0473 77.623 55.0391 77.5009 55.2036C77.4219 55.3105 77.3932 55.3105 77.2639 55.2036C77.0699 55.0473 76.8544 55.0473 76.6677 55.1954C76.5456 55.2941 76.5096 55.2941 76.3875 55.1954C76.2079 55.0391 75.9565 55.0473 75.8129 55.2118C75.7051 55.3352 75.6908 55.3352 75.5686 55.2118C75.4034 55.0391 75.1448 55.0391 74.9796 55.2118C74.8575 55.3352 74.8432 55.3352 74.7354 55.2118C74.5917 55.0473 74.2398 55.0391 74.1248 55.2036C74.0458 55.3105 74.0171 55.3105 73.8878 55.2036C73.6867 55.0473 73.3778 55.0473 73.2629 55.2036C73.1767 55.3187 73.1551 55.3187 73.0474 55.2036C72.8893 55.0391 72.5877 55.0473 72.444 55.2118C72.3363 55.327 72.3219 55.327 72.2141 55.2118C72.0705 55.0473 71.7257 55.0391 71.6108 55.2036C71.5246 55.3187 71.503 55.3187 71.3953 55.2036C71.2444 55.0473 70.8637 55.0473 70.7488 55.2036C70.6626 55.3187 70.641 55.3187 70.5261 55.1954C70.3537 55.0144 70.0592 55.0227 69.8868 55.2036C69.8078 55.2859 69.7431 55.3187 69.7431 55.2694C69.7431 55.2283 69.6641 55.146 69.5636 55.0967C69.3624 54.9898 69.0607 55.0802 69.0033 55.2612C68.9746 55.3434 68.9458 55.3352 68.874 55.2365C68.7088 55.0062 68.4933 54.9815 68.2993 55.1543C68.1269 55.3105 68.1198 55.3105 67.9546 55.1543C67.7391 54.9569 67.6529 54.9569 67.4158 55.1707C67.3153 55.2612 67.2291 55.3023 67.2291 55.2612C67.2291 55.2201 67.1285 55.1378 67.0064 55.0802C66.8196 54.9898 66.7622 54.998 66.5969 55.1378C66.4102 55.2859 66.3958 55.2859 66.2737 55.146C66.1157 54.9569 65.9002 54.9569 65.735 55.146C65.6057 55.2941 65.5985 55.2941 65.4333 55.146C65.2322 54.9569 65.0382 54.9569 64.873 55.146C64.7581 55.2776 64.7437 55.2776 64.6216 55.146C64.4564 54.9486 64.1906 54.9569 64.0398 55.1543C63.9176 55.3105 63.9105 55.3105 63.774 55.1543C63.6088 54.9651 63.3717 54.9486 63.2065 55.1214C63.0916 55.2365 63.0629 55.2365 62.8545 55.1049C62.639 54.9651 62.6247 54.9651 62.4092 55.0967C62.2152 55.2283 62.1793 55.2283 62.086 55.1214C61.9495 54.9651 61.7052 54.9651 61.5113 55.1131C61.3892 55.2118 61.3533 55.2118 61.2312 55.1131C61.0516 54.9569 60.8002 54.9651 60.6565 55.1296C60.5488 55.253 60.5344 55.253 60.4123 55.1296C60.2471 54.9569 59.9885 54.9569 59.8233 55.1296C59.7012 55.253 59.6868 55.253 59.579 55.1296C59.4282 54.9651 59.0834 54.9569 58.9685 55.1214C58.8823 55.2365 58.8607 55.2365 58.753 55.1214C58.6021 54.9651 58.2214 54.9651 58.1065 55.1214C58.0275 55.2283 57.9988 55.2201 57.8335 55.0802C57.6324 54.8993 57.4169 54.924 57.2589 55.146C57.1943 55.2447 57.1512 55.253 57.1152 55.1954C57.0075 55.0062 56.7561 54.9157 56.5693 54.998C56.4688 55.0391 56.3826 55.1131 56.3826 55.1625C56.3826 55.2201 56.2964 55.1789 56.1958 55.0885C55.9588 54.8746 55.8726 54.8746 55.6571 55.072C55.4847 55.2283 55.4775 55.2283 55.3123 55.072C55.104 54.8746 55.0034 54.8746 54.8023 55.0638C54.6371 55.2118 54.6299 55.2118 54.5006 55.0638C54.3426 54.8828 54.1702 54.8746 53.9547 55.0473C53.811 55.1625 53.7823 55.1625 53.6386 55.0473C53.4231 54.8746 53.2507 54.8828 53.0855 55.072C52.949 55.2283 52.9418 55.2283 52.8197 55.072C52.6689 54.8746 52.4031 54.8664 52.2379 55.0638C52.1158 55.1954 52.1014 55.1954 51.9793 55.0638C51.8285 54.8828 51.5411 54.8746 51.3903 55.0473C51.2826 55.1707 51.2682 55.1707 51.1461 55.0473C50.9809 54.8746 50.7223 54.8746 50.5571 55.0473C50.4349 55.1707 50.4206 55.1707 50.3128 55.0473C50.1692 54.8828 49.8172 54.8746 49.7023 55.0391C49.6233 55.146 49.5945 55.146 49.4652 55.0391C49.2641 54.8828 48.9552 54.8828 48.8403 55.0391C48.7541 55.1543 48.7325 55.1543 48.6248 55.0391C48.4596 54.8664 48.0789 54.8828 47.9855 55.0638C47.9352 55.1543 47.8921 55.1707 47.8562 55.1131C47.7269 54.9075 47.4899 54.8335 47.3031 54.9322C47.2025 54.9815 47.1163 55.0556 47.1163 55.0967C47.1163 55.1378 47.0301 55.0967 46.9296 55.0062C46.6925 54.7924 46.6063 54.7924 46.3908 54.9898C46.2185 55.146 46.2113 55.146 46.0461 54.9898C45.8378 54.7924 45.7372 54.7924 45.5361 54.9815C45.3708 55.1296 45.3637 55.1296 45.2344 54.9815C45.0763 54.8006 44.9039 54.7924 44.6956 54.9569C44.5592 55.0638 44.5161 55.0638 44.3221 54.9322C44.1066 54.8006 44.0923 54.8006 43.8768 54.9322C43.6828 55.0638 43.6469 55.0638 43.5535 54.9569C43.417 54.8006 43.1728 54.8006 42.9789 54.9486C42.8568 55.0473 42.8208 55.0473 42.6987 54.9486C42.5192 54.7924 42.2677 54.8006 42.1241 54.9651C42.0163 55.0885 42.002 55.0885 41.8799 54.9651C41.7146 54.7924 41.4561 54.7924 41.2908 54.9651C41.1687 55.0885 41.1544 55.0885 41.0466 54.9651C40.8958 54.8006 40.551 54.7924 40.4361 54.9569C40.3499 55.072 40.3283 55.072 40.2134 54.9486C40.0482 54.7759 39.7537 54.7759 39.5884 54.9404C39.4807 55.0556 39.452 55.0556 39.2939 54.9075C39.0856 54.7101 38.9851 54.7101 38.7839 54.8993C38.6187 55.0473 38.6115 55.0473 38.4822 54.8993C38.317 54.7101 38.1015 54.7101 37.9363 54.8993C37.807 55.0473 37.7998 55.0473 37.6346 54.8993C37.4335 54.7101 37.2396 54.7101 37.0815 54.8993C36.9594 55.0309 36.9451 55.0309 36.8301 54.8993C36.6577 54.7019 36.392 54.7101 36.2411 54.9075C36.119 55.0638 36.1118 55.0638 35.9753 54.9075C35.8101 54.7183 35.5731 54.7101 35.3935 54.8911C35.2714 55.0144 35.257 55.0144 35.1349 54.8911C34.9625 54.7101 34.668 54.7183 34.5172 54.8993C34.3232 55.146 33.8204 56.5853 33.8563 56.7745C33.8779 56.865 33.9856 56.9884 34.0934 57.0459C34.2586 57.1282 34.3089 57.1199 34.4741 56.9884C34.6536 56.8321 34.6608 56.8321 34.826 56.9801C35.0344 57.1775 35.1277 57.1775 35.3432 56.9801C35.5156 56.8239 35.5228 56.8239 35.688 56.9801C35.8963 57.1775 35.9969 57.1775 36.198 56.9884C36.3632 56.8403 36.3704 56.8403 36.4997 56.9884C36.6577 57.1693 36.8301 57.1775 37.0384 57.013C37.1749 56.9061 37.218 56.9061 37.412 57.0377C37.6203 57.1693 37.649 57.1693 37.8358 57.0459C38.0082 56.9308 38.0584 56.9308 38.1734 57.0213C38.3458 57.1693 38.5684 57.1693 38.7552 57.0213C38.8773 56.9226 38.9132 56.9226 39.0353 57.0213C39.2149 57.1775 39.4663 57.1693 39.61 57.0048C39.7177 56.8814 39.7321 56.8814 39.8542 57.0048C40.0194 57.1775 40.278 57.1775 40.4432 57.0048C40.5653 56.8814 40.5797 56.8814 40.6875 57.0048C40.8383 57.1693 41.1831 57.1775 41.298 57.013C41.377 56.9061 41.4058 56.9143 41.5638 57.0542C41.7937 57.2598 41.8799 57.2598 42.1169 57.0459C42.2175 56.9555 42.3037 56.9143 42.3037 56.9555C42.3037 57.0295 42.6125 57.2186 42.7346 57.2186C42.7777 57.2186 42.8711 57.1446 42.9501 57.0542L43.0938 56.8897L43.2375 57.0542C43.417 57.2598 43.6254 57.268 43.7977 57.0706C43.927 56.9226 43.9342 56.9226 44.0994 57.0706C44.3006 57.2598 44.4945 57.2598 44.6597 57.0788C44.7747 56.939 44.789 56.939 44.9111 57.0788C45.0763 57.268 45.3421 57.2598 45.493 57.0624C45.6151 56.9061 45.6223 56.9061 45.7587 57.0624C45.9239 57.2515 46.161 57.2598 46.3406 57.0788C46.4627 56.9555 46.477 56.9555 46.5992 57.0788C46.7644 57.2515 47.0661 57.2598 47.1882 57.0953C47.2672 56.9884 47.2959 56.9884 47.4252 57.0953C47.6263 57.2515 47.9352 57.2515 48.0501 57.0953C48.1363 56.9801 48.1579 56.9801 48.2656 57.0953C48.4237 57.2598 48.7254 57.2515 48.869 57.087C48.9768 56.9719 48.9911 56.9719 49.0989 57.087C49.2425 57.2598 49.5873 57.2515 49.7382 57.087C49.8387 56.9637 49.8603 56.9637 49.9393 57.0788C50.083 57.2927 50.3128 57.3173 50.4996 57.1446C50.672 56.9884 50.6792 56.9884 50.8444 57.1446C51.0599 57.342 51.1461 57.342 51.3831 57.1282C51.4837 57.0377 51.5699 56.9966 51.5699 57.0377C51.5699 57.0788 51.6704 57.1611 51.7926 57.2186C51.9793 57.3091 52.0368 57.3009 52.202 57.1611C52.3887 57.013 52.4031 57.013 52.5252 57.1528C52.6833 57.342 52.8988 57.342 53.064 57.1528C53.1933 57.0048 53.2004 57.0048 53.3657 57.1528C53.5668 57.342 53.7607 57.342 53.9259 57.1611C54.0409 57.0213 54.0552 57.0213 54.1702 57.1611C54.3282 57.3338 54.5724 57.342 54.7376 57.1693C54.8526 57.0459 54.8813 57.0459 55.0321 57.1693C55.2404 57.342 55.4416 57.3338 55.6068 57.1611C55.7289 57.0377 55.7433 57.0377 55.8654 57.1611C56.0306 57.3338 56.3323 57.342 56.4544 57.1775C56.5334 57.0706 56.5621 57.0706 56.6914 57.1775C56.8854 57.3338 57.2014 57.3338 57.3164 57.1775C57.3954 57.0706 57.4241 57.0706 57.5534 57.1775C57.7545 57.342 57.9988 57.3338 58.1424 57.1693C58.2502 57.0459 58.2645 57.0459 58.3866 57.1693C58.5519 57.342 58.8535 57.342 59.0044 57.1611C59.0834 57.0788 59.1409 57.0624 59.1696 57.1117C59.3133 57.3667 59.7371 57.3831 59.8664 57.1446C59.8951 57.0788 59.9741 57.1035 60.0962 57.2186C60.3261 57.4243 60.4123 57.4243 60.6278 57.2269C60.8002 57.0706 60.8074 57.0706 60.9726 57.2269C61.1809 57.4243 61.2814 57.4243 61.4826 57.2351C61.6478 57.0871 61.655 57.0871 61.7843 57.2351C61.9495 57.4243 62.165 57.4243 62.3302 57.2351C62.4595 57.0871 62.4667 57.0871 62.6319 57.2351C62.8402 57.4243 63.0054 57.4243 63.1706 57.2186C63.2927 57.0624 63.2999 57.0624 63.4795 57.2186C63.7021 57.4243 63.8674 57.4243 64.0254 57.2269C64.1475 57.0706 64.1547 57.0706 64.2912 57.2269C64.4564 57.416 64.6288 57.4243 64.8443 57.2515C64.9879 57.1364 65.0167 57.1364 65.1603 57.2515C65.3758 57.4243 65.5482 57.416 65.7134 57.2269C65.8499 57.0706 65.8571 57.0706 65.9792 57.2269C66.13 57.4243 66.3958 57.4325 66.5682 57.2433C66.6831 57.1035 66.6975 57.1035 66.8124 57.2433C66.9705 57.416 67.2147 57.4243 67.3799 57.2515C67.4948 57.1282 67.5236 57.1282 67.6744 57.2515C67.8827 57.4243 68.0838 57.416 68.2491 57.2433C68.3712 57.1199 68.3855 57.1199 68.5077 57.2433C68.6729 57.416 68.9746 57.4243 69.0967 57.2598C69.1757 57.1528 69.2044 57.1528 69.3337 57.2598C69.5348 57.416 69.8437 57.416 69.9586 57.2598C70.0448 57.1446 70.0664 57.1446 70.1741 57.2598C70.3322 57.4243 70.6338 57.416 70.7847 57.2515C70.8924 57.1282 70.9068 57.1282 71.0289 57.2515C71.1941 57.4243 71.4527 57.4243 71.6179 57.2515C71.7401 57.1282 71.7544 57.1282 71.8622 57.2515C72.013 57.416 72.3578 57.4243 72.4727 57.2598C72.5589 57.1446 72.5805 57.1446 72.6882 57.2598C72.8391 57.416 73.2198 57.416 73.3347 57.2598C73.4209 57.1446 73.4424 57.1446 73.5502 57.2598C73.7154 57.4325 74.0961 57.416 74.1895 57.2433C74.2398 57.1446 74.2829 57.1282 74.3188 57.1857C74.4481 57.3914 74.6851 57.4654 74.8719 57.3667C74.9724 57.3173 75.0586 57.2351 75.0586 57.194C75.0586 57.1446 75.1161 57.1693 75.1879 57.2351C75.4034 57.4572 75.5974 57.4818 75.7841 57.3091C75.9565 57.1528 75.9637 57.1528 76.1289 57.3091C76.3444 57.5065 76.4306 57.5065 76.6677 57.2927C76.7682 57.2022 76.8544 57.1611 76.8544 57.2022C76.8544 57.2433 76.9334 57.3173 77.034 57.3667C77.2351 57.4736 77.5296 57.3831 77.6015 57.2022C77.6374 57.1117 77.6518 57.1117 77.6877 57.2022C77.7595 57.3831 78.054 57.4736 78.2551 57.3667C78.3557 57.3173 78.4347 57.2433 78.4347 57.2022C78.4347 57.1611 78.5209 57.2022 78.6215 57.2927C78.8585 57.5065 78.9447 57.5065 79.1602 57.3091C79.3326 57.1528 79.3398 57.1528 79.505 57.3091C79.7133 57.5065 79.8139 57.5065 80.0222 57.3091C80.1587 57.1857 80.2018 57.1775 80.2664 57.268C80.3957 57.4654 80.7046 57.4983 80.8554 57.3256C80.9847 57.1693 80.9919 57.1693 81.1787 57.3256C81.3439 57.4654 81.4013 57.4736 81.5881 57.3831C81.7102 57.3256 81.8108 57.2433 81.8108 57.2022C81.8108 57.1611 81.897 57.2022 81.9975 57.2927C82.2346 57.5065 82.3208 57.5065 82.5578 57.2927C82.6584 57.2022 82.7446 57.1611 82.7446 57.2022C82.7446 57.2433 82.8451 57.3256 82.9673 57.3831C83.1612 57.4736 83.2043 57.4654 83.3839 57.3173C83.5419 57.1857 83.5922 57.1775 83.6497 57.268C83.7646 57.4654 84.0806 57.4983 84.2387 57.3173C84.368 57.1693 84.3751 57.1693 84.5404 57.3173C84.7415 57.5065 84.8349 57.5065 85.0504 57.3091C85.2228 57.1528 85.2299 57.1528 85.3951 57.3091C85.6106 57.5065 85.6968 57.5065 85.9339 57.2927C86.0344 57.2022 86.1206 57.1611 86.1206 57.2022C86.1206 57.2433 86.1997 57.3173 86.3002 57.3667C86.5013 57.4736 86.7959 57.3831 86.8677 57.2022C86.9036 57.1117 86.918 57.1117 86.9539 57.2022C87.0257 57.3831 87.3202 57.4736 87.5213 57.3667C87.6219 57.3173 87.7009 57.2351 87.7009 57.194C87.7009 57.1446 87.7656 57.1775 87.8446 57.2598C88.017 57.4407 88.3115 57.4489 88.4839 57.268C88.5988 57.1446 88.6204 57.1446 88.7066 57.2598C88.8215 57.416 89.2381 57.416 89.353 57.2598C89.4392 57.1446 89.4608 57.1446 89.5685 57.2598C89.7266 57.4243 90.0283 57.416 90.1719 57.2515C90.2797 57.1364 90.294 57.1364 90.4018 57.2515C90.5454 57.416 90.8902 57.4243 91.0052 57.2598C91.0842 57.1528 91.1129 57.1528 91.2422 57.2598C91.3284 57.3256 91.4792 57.3831 91.587 57.3831C91.6947 57.3831 91.8168 57.3256 91.8671 57.2598C91.9461 57.1528 91.9749 57.1528 92.1042 57.2598C92.3053 57.416 92.5495 57.416 92.686 57.2515C92.7866 57.1364 92.8153 57.1364 92.959 57.2515C93.1673 57.416 93.3684 57.416 93.5264 57.2515C93.6414 57.1282 93.6701 57.1282 93.8209 57.2515C94.0364 57.4243 94.2088 57.416 94.3669 57.2351C94.4962 57.0871 94.5033 57.0871 94.6685 57.2351C94.8769 57.4243 95.0421 57.4243 95.2073 57.2186C95.3294 57.0624 95.3366 57.0624 95.5162 57.2186C95.7388 57.4243 95.825 57.4243 96.0549 57.2186C96.2129 57.0788 96.2416 57.0706 96.3207 57.1775C96.4356 57.342 96.7804 57.3338 96.9312 57.1693C97.039 57.0459 97.0533 57.0459 97.1755 57.1693C97.3478 57.3502 97.6639 57.3338 97.7717 57.1446C97.8578 56.9884 97.8578 56.9884 98.0302 57.1446C98.2529 57.342 98.3894 57.342 98.5833 57.1364C98.727 56.9884 98.7486 56.9801 98.8348 57.0953C98.9641 57.2762 99.3878 57.2515 99.4956 57.0624C99.5818 56.9061 99.5818 56.9061 99.7542 57.0624C99.984 57.268 100.07 57.2598 100.322 57.0213L100.523 56.8321L100.774 57.1035C100.911 57.2598 101.047 57.3831 101.076 57.3831C101.105 57.3831 101.105 57.5065 101.083 57.6628C101.054 57.9013 101.083 57.9918 101.299 58.255C101.528 58.5428 101.586 58.5757 101.902 58.5757C102.132 58.5757 102.29 58.6251 102.376 58.7238C102.52 58.8883 102.972 58.9129 103.238 58.7731C103.339 58.7238 103.453 58.5922 103.497 58.4852C103.554 58.3372 103.626 58.2879 103.813 58.2879C104.114 58.2879 104.28 58.148 104.359 57.8355L104.416 57.5888L104.531 57.8931C104.675 58.2796 105.041 58.5593 105.321 58.5017C105.479 58.4606 105.558 58.5017 105.68 58.658C105.924 58.9787 106.298 59.0116 106.571 58.7484C106.707 58.6168 106.815 58.5675 106.844 58.6168C106.865 58.658 107.016 58.6991 107.174 58.6991C107.526 58.6991 107.885 58.3454 107.885 58.0082C107.885 57.8602 107.914 57.8108 107.993 57.8437C108.115 57.9013 108.532 57.4572 108.532 57.268C108.532 57.1117 108.546 57.1117 108.776 57.2269C108.92 57.3091 108.992 57.3009 109.143 57.1857C109.315 57.0542 109.336 57.0624 109.523 57.2186C109.688 57.3585 109.76 57.3749 109.911 57.3091C110.012 57.268 110.119 57.194 110.141 57.1446C110.17 57.0953 110.242 57.12 110.328 57.2186C110.5 57.416 110.737 57.4325 110.917 57.2433C111.039 57.12 111.053 57.12 111.175 57.2433C111.333 57.4078 111.542 57.4243 111.8 57.2844C111.937 57.2104 112.001 57.2104 112.066 57.2844C112.174 57.4078 112.713 57.416 112.813 57.3009C112.863 57.2433 112.928 57.268 113.021 57.3831C113.165 57.5641 113.481 57.6052 113.61 57.4572C113.661 57.3996 113.74 57.4325 113.869 57.5805C114.084 57.8273 114.192 57.8437 114.386 57.6792C114.508 57.5805 114.544 57.5888 114.688 57.7615C114.875 57.9918 115.047 58.0082 115.27 57.8273C115.399 57.7286 115.428 57.7204 115.428 57.819C115.428 58.0164 115.765 58.1645 116.002 58.0658C116.175 57.9918 116.232 58 116.333 58.1316C116.469 58.3043 116.793 58.3372 116.915 58.1974C116.965 58.1398 117.044 58.1727 117.173 58.3208C117.389 58.5675 117.489 58.5839 117.698 58.4194C117.827 58.3125 117.856 58.3208 118.006 58.5017C118.193 58.7238 118.358 58.7484 118.545 58.5922C118.66 58.4935 118.703 58.5099 118.847 58.6744C119.034 58.8883 119.22 58.9129 119.414 58.7567C119.522 58.658 119.565 58.6662 119.68 58.7978C119.838 58.9787 120.262 58.9952 120.384 58.8225C120.47 58.7073 120.492 58.7073 120.614 58.8307C120.801 59.0281 121.167 59.0116 121.318 58.7978C121.433 58.6415 121.454 58.6333 121.533 58.7402C121.67 58.9294 122.079 58.8965 122.209 58.6826C122.295 58.5428 122.338 58.5181 122.41 58.6004C122.568 58.7813 122.956 58.7238 123.085 58.4852C123.171 58.3454 123.229 58.3043 123.279 58.3619C123.466 58.5757 124.047 58.3536 124.047 58.0822C124.047 58 124.112 57.9835 124.299 58.0164C124.615 58.074 124.874 57.8931 124.974 57.5312C125.024 57.342 125.125 57.2269 125.261 57.1611C125.664 56.9884 125.872 56.281 125.671 55.7711ZM123.286 56.388C123.272 56.4126 123.214 56.3797 123.171 56.3304C123.035 56.1741 122.848 56.2152 122.704 56.4209C122.589 56.5853 122.553 56.5936 122.41 56.5113C122.201 56.388 121.986 56.4538 121.885 56.6511C121.821 56.7992 121.799 56.7992 121.655 56.684C121.447 56.5196 121.296 56.5278 121.145 56.7169C121.031 56.865 121.009 56.865 120.815 56.7416C120.621 56.6182 120.6 56.6182 120.47 56.7581C120.327 56.8979 120.319 56.8979 120.176 56.7334C119.996 56.5278 119.896 56.5196 119.673 56.6923C119.522 56.8156 119.508 56.8156 119.407 56.6511C119.285 56.462 118.955 56.4209 118.818 56.5771C118.746 56.6594 118.703 56.6347 118.617 56.4949C118.495 56.2975 118.107 56.2399 117.956 56.4126C117.856 56.5278 117.762 56.3057 117.827 56.0919C117.863 55.9932 117.892 55.9767 117.956 56.0507C118.093 56.207 118.43 56.1659 118.588 55.9685C118.703 55.8287 118.754 55.8122 118.818 55.8863C118.955 56.0425 119.22 56.0014 119.386 55.8122C119.493 55.6889 119.558 55.6642 119.615 55.73C119.745 55.878 120.082 55.8369 120.183 55.6642C120.269 55.5244 120.298 55.5244 120.42 55.6231C120.614 55.7876 120.873 55.7629 120.973 55.5819C121.052 55.4257 121.059 55.4339 121.26 55.5984C121.426 55.7382 121.49 55.7547 121.641 55.6724C121.742 55.6231 121.821 55.5408 121.821 55.4915C121.821 55.4503 121.885 55.4832 121.964 55.5737C122.122 55.7547 122.395 55.7876 122.525 55.6395C122.582 55.5737 122.64 55.5984 122.747 55.7464C122.869 55.9274 122.905 55.9356 123.106 55.8534C123.265 55.7793 123.329 55.7793 123.358 55.8534C123.394 55.9438 123.344 56.3222 123.286 56.388ZM117.08 56.3139C117.044 56.3139 117.008 56.2728 117.008 56.2235C117.008 56.1823 117.044 56.1659 117.08 56.1906C117.123 56.2152 117.152 56.2564 117.152 56.281C117.152 56.2975 117.123 56.3139 117.08 56.3139ZM102.972 56.3962C102.872 56.3962 102.771 56.4373 102.75 56.4784C102.728 56.5278 102.671 56.5607 102.627 56.5607C102.584 56.5607 102.642 56.4538 102.757 56.3222C102.958 56.0836 103.145 56.0672 103.145 56.281C103.145 56.3468 103.073 56.3962 102.972 56.3962Z" fill="#28220B"/>
<path d="M25.872 49.672C25.04 49.672 24.176 49.256 23.28 48.424C22.384 47.592 21.52 46.488 20.688 45.112L14.448 34.648H8.016V31.912L15.552 32.392L16.272 31L24 43.24C24.832 44.52 25.712 45.512 26.64 46.216C27.568 46.92 28.672 47.272 29.952 47.272L30.144 47.464L29.856 49.096L25.872 49.672ZM2.736 49.048L3.216 46.888C4.72 46.728 5.696 46.424 6.144 45.976C6.592 45.528 6.832 44.616 6.864 43.24L6.912 23.08C6.912 22.056 6.784 21.368 6.528 21.016C6.304 20.664 5.824 20.488 5.088 20.488C4.8 20.488 4.448 20.504 4.032 20.536C3.648 20.568 3.456 20.584 3.456 20.584L3.36 20.392L3.696 18.28C3.696 18.28 4.016 18.296 4.656 18.328C5.296 18.36 6.032 18.392 6.864 18.424C7.696 18.424 8.416 18.424 9.024 18.424C9.728 18.424 10.48 18.392 11.28 18.328C12.08 18.264 12.768 18.2 13.344 18.136C13.92 18.04 14.208 17.992 14.208 17.992L14.016 20.152C12.8 20.344 11.968 20.648 11.52 21.064C11.104 21.448 10.88 22.104 10.848 23.032L10.272 43.624C10.24 44.904 10.368 45.768 10.656 46.216C10.944 46.664 11.52 46.888 12.384 46.888C12.864 46.888 13.344 46.872 13.824 46.84C14.304 46.776 14.544 46.744 14.544 46.744L14.64 46.936L14.208 49.144C14.208 49.144 13.856 49.128 13.152 49.096C12.48 49.064 11.68 49.032 10.752 49C9.824 49 8.992 49 8.256 49C7.456 49 6.624 49 5.76 49C4.928 49 4.208 49 3.6 49C3.024 49.032 2.736 49.048 2.736 49.048ZM15.696 34.744L13.728 33.592L18.912 24.952C19.904 23.32 20.832 21.992 21.696 20.968C22.592 19.944 23.552 19.192 24.576 18.712C25.6 18.232 26.816 17.992 28.224 17.992C28.768 18.408 29.104 19.096 29.232 20.056C29.36 20.984 29.376 21.864 29.28 22.696L28.848 23.032C27.472 22.456 26.304 22.232 25.344 22.36C24.384 22.488 23.552 22.888 22.848 23.56C22.176 24.232 21.52 25.096 20.88 26.152L15.696 34.744ZM47.9006 49.576C46.6206 49.576 45.6126 49.256 44.8766 48.616C44.1726 47.944 43.7566 46.968 43.6286 45.688L43.4366 45.64C42.6686 46.408 41.9326 47.08 41.2286 47.656C40.5566 48.2 39.9486 48.632 39.4046 48.952C38.8926 49.24 38.4766 49.384 38.1566 49.384C36.9726 49.384 35.9166 49.128 34.9886 48.616C34.0606 48.104 33.3246 47.4 32.7806 46.504C32.2686 45.608 32.0126 44.584 32.0126 43.432C32.0126 42.504 32.2366 41.688 32.6846 40.984C33.1646 40.28 33.7886 39.816 34.5566 39.592L43.6766 37.096L43.7246 34.984C43.7246 33.384 43.3566 32.136 42.6206 31.24C41.8846 30.344 40.8446 29.896 39.5006 29.896C38.6046 29.896 37.6606 30.104 36.6686 30.52C35.6766 30.936 34.7006 31.528 33.7406 32.296L33.5006 32.152L32.9246 30.088C33.7566 29.608 34.6846 29.112 35.7086 28.6C36.7326 28.056 37.7086 27.608 38.6366 27.256C39.5646 26.904 40.2686 26.728 40.7486 26.728C42.1566 26.728 43.3566 26.984 44.3486 27.496C45.3406 27.976 46.0926 28.68 46.6046 29.608C47.1486 30.504 47.4206 31.608 47.4206 32.92C47.4206 33.336 47.3726 34.008 47.2766 34.936C47.2126 35.864 47.1166 36.904 46.9886 38.056C46.8606 39.176 46.7486 40.264 46.6526 41.32C46.5886 42.376 46.5566 43.256 46.5566 43.96C46.5566 44.664 46.7326 45.208 47.0846 45.592C47.4366 45.976 47.9166 46.168 48.5246 46.168C49.0686 46.168 49.6126 46.04 50.1566 45.784C50.7006 45.496 51.1166 45.224 51.4046 44.968L52.0766 45.736C51.8206 46.152 51.4686 46.632 51.0206 47.176C50.6046 47.688 50.1246 48.168 49.5806 48.616C49.0686 49.064 48.5086 49.384 47.9006 49.576ZM38.9726 46.12C39.5806 46.12 40.2846 45.912 41.0846 45.496C41.9166 45.048 42.6686 44.488 43.3406 43.816L43.5806 38.92L37.0526 40.888C36.1246 41.176 35.6606 41.848 35.6606 42.904C35.6606 43.8 35.9646 44.568 36.5726 45.208C37.2126 45.816 38.0126 46.12 38.9726 46.12ZM54.3776 49.336L54.6176 47.32C55.7376 47.128 56.4736 46.84 56.8256 46.456C57.2096 46.072 57.4016 45.416 57.4016 44.488L57.4496 31.048C57.4496 30.312 57.3536 29.832 57.1616 29.608C57.0016 29.352 56.6496 29.224 56.1056 29.224C55.8816 29.224 55.6256 29.24 55.3376 29.272C55.0496 29.272 54.9056 29.272 54.9056 29.272L54.8096 29.08L55.0496 27.256C55.0496 27.256 55.2896 27.256 55.7696 27.256C56.2496 27.256 56.8096 27.272 57.4496 27.304C58.1216 27.304 58.6976 27.304 59.1776 27.304C59.7216 27.304 60.3296 27.288 61.0016 27.256C61.6736 27.192 62.2496 27.144 62.7296 27.112C63.2416 27.08 63.4976 27.064 63.4976 27.064L63.3536 29.032C62.3616 29.16 61.7376 29.384 61.4816 29.704C61.2576 30.024 61.1136 30.728 61.0496 31.816L60.8096 36.904L66.5216 36.952C67.4496 36.952 68.2816 36.936 69.0176 36.904C69.7536 36.84 70.6176 36.76 71.6096 36.664L71.6576 31.048C71.6576 30.312 71.5616 29.832 71.3696 29.608C71.2096 29.352 70.8576 29.224 70.3136 29.224C70.0896 29.224 69.8176 29.24 69.4976 29.272C69.2096 29.272 69.0656 29.272 69.0656 29.272L68.9696 29.08L69.2096 27.256C69.2096 27.256 69.4496 27.256 69.9296 27.256C70.4096 27.256 70.9536 27.272 71.5616 27.304C72.1696 27.304 72.6816 27.304 73.0976 27.304C73.6736 27.304 74.3296 27.288 75.0656 27.256C75.8016 27.192 76.4256 27.144 76.9376 27.112C77.4816 27.08 77.7536 27.064 77.7536 27.064L77.6096 29.032C76.7136 29.16 76.1216 29.352 75.8336 29.608C75.5456 29.832 75.3696 30.264 75.3056 30.904C75.2096 32.408 75.1136 34.04 75.0176 35.8C74.9536 37.56 74.9056 39.24 74.8736 40.84C74.8416 42.408 74.8256 43.736 74.8256 44.824C74.8256 45.656 74.9216 46.232 75.1136 46.552C75.3376 46.872 75.7536 47.032 76.3616 47.032C76.7456 47.032 77.0976 47.016 77.4176 46.984C77.7696 46.92 77.9456 46.888 77.9456 46.888L78.0416 47.08L77.7056 49.096C77.7056 49.096 77.4336 49.08 76.8896 49.048C76.3776 49.048 75.7536 49.032 75.0176 49C74.2816 49 73.6096 49 73.0016 49C72.5856 49 72.0256 49 71.3216 49C70.6176 49 69.9776 49 69.4016 49C68.8576 49.032 68.5856 49.048 68.5856 49.048L68.9216 47.08C70.0096 47.048 70.7296 46.808 71.0816 46.36C71.4336 45.912 71.6096 45 71.6096 43.624V39.064C71.6096 39.064 71.2896 39.064 70.6496 39.064C70.0416 39.032 69.3376 39.016 68.5376 39.016C67.7376 39.016 67.0656 39.016 66.5216 39.016C66.2336 39.016 65.7696 39.032 65.1296 39.064C64.5216 39.096 63.8656 39.144 63.1616 39.208C62.4896 39.24 61.9136 39.272 61.4336 39.304C60.9536 39.336 60.7136 39.352 60.7136 39.352L60.6176 44.728C60.5856 45.624 60.6656 46.232 60.8576 46.552C61.0816 46.872 61.4976 47.032 62.1056 47.032C62.4896 47.032 62.8416 47.016 63.1616 46.984C63.5136 46.952 63.6896 46.936 63.6896 46.936L63.7856 47.08L63.4496 49.096C63.4496 49.096 63.2416 49.08 62.8256 49.048C62.4416 49.048 61.9776 49.032 61.4336 49C60.9216 49 60.4416 49 59.9936 49C59.2896 49 58.4896 49.016 57.5936 49.048C56.7296 49.112 55.9776 49.16 55.3376 49.192C54.7296 49.256 54.4096 49.304 54.3776 49.336Z" fill="#28220B"/>
</svg>
